<?xml version="1.0" encoding="utf-8"?>
<!-- Generator: Adobe Illustrator 15.0.0, SVG Export Plug-In . SVG Version: 6.00 Build 0)  -->
<!DOCTYPE svg PUBLIC "-//W3C//DTD SVG 1.1//EN" "http://www.w3.org/Graphics/SVG/1.1/DTD/svg11.dtd">
<svg version="1.1" id="레이어_1" xmlns="http://www.w3.org/2000/svg" xmlns:xlink="http://www.w3.org/1999/xlink" x="0px"
	 y="0px" width="425.197px" height="425.197px" viewBox="0 0 425.197 425.197" enable-background="new 0 0 425.197 425.197"
	 xml:space="preserve">
<g id="레이어_1_1_" display="none">
	<circle display="inline" fill="#B28247" cx="199.275" cy="222.66" r="202"/>
</g>
<g>
	<path id="XMLID_49939_" fill="#FFFFFF" d="M260.517,181.927l-29.03-14.39c-2.645-2.813-7.154-4.856-12.405-5.257l-15.746-1.194
		c-7.781-0.592-14.532,2.629-16.161,7.403l-11.5,6.489v-20.646c0-3.725-3.086-6.74-6.896-6.74h-2.254
		c-3.809,0-6.896,3.017-6.896,6.74v34.872c0,3.722,3.087,6.737,6.896,6.737h2.254c0.028,0,0.058-0.002,0.087-0.003
		c0.124-0.002,0.248-0.011,0.373-0.019c0.107-0.008,0.216-0.012,0.323-0.023c0.099-0.012,0.197-0.027,0.296-0.044
		c0.132-0.021,0.265-0.04,0.394-0.067c0.064-0.014,0.126-0.032,0.19-0.048c0.164-0.039,0.324-0.08,0.484-0.132
		c0.034-0.011,0.067-0.023,0.102-0.038c0.188-0.062,0.372-0.13,0.551-0.209c0.018-0.01,0.037-0.02,0.056-0.026
		c0.193-0.087,0.383-0.18,0.566-0.283c0.006-0.003,0.013-0.005,0.02-0.01l14.478-8.172l-0.221,31.317l-17.884,31.029l12.966,0.984
		l-6.134,19.824c-0.218,0.756-0.258,1.52-0.148,2.252c-0.037,0.252-0.061,0.504-0.061,0.764v53.613c0,3.133,2.723,5.674,6.082,5.674
		h6.193c3.231,0,5.899-2.357,6.075-5.367l1.16-53.6l6.201-21.688l3.339,0.252l2.875,0.219l1.462,24.801
		c0.023,0.287,0.075,0.563,0.141,0.838c0.039,0.361,0.114,0.727,0.232,1.086l16.697,51.069c0.979,2.984,4.359,4.595,7.561,3.593
		l5.9-1.842c3.076-0.963,4.885-4.001,4.113-6.92l-16.146-50.927l-0.165-20.192l13.001,0.987l-12.887-33.347l5.201-35.787
		l14.218,7.047l-6.995,25.949c-1.129,4.19,1.43,8.479,5.712,9.582c4.285,1.104,8.673-1.396,9.804-5.583l8.424-31.248l0.138-0.264
		C265.271,187.666,263.914,183.608,260.517,181.927z M210.349,158.376c9.422,2.363,19.018-3.188,21.435-12.396
		c2.416-9.21-3.262-18.591-12.682-20.954c-9.421-2.361-19.018,3.188-21.436,12.396C195.249,146.632,200.927,156.013,210.349,158.376
		z M204.405,125.132c4.414-2.628,9.865-3.585,15.254-2.233c5.391,1.352,9.694,4.756,12.271,9.138
		c0.377,0.645,1.382,0.341,1.314-0.398l-3.547-39.715c-0.162-1.802-2.553-2.401-3.581-0.897l-22.669,33.141
		C203.024,124.781,203.757,125.518,204.405,125.132z"/>
	<g id="_x33__99_">
		<path id="XMLID_28386_" fill="#FFFFFF" d="M418.789,236.005c-0.239,0.966,0.364,1.939,1.355,2.178
			c0.989,0.236,1.987-0.355,2.228-1.323c0.24-0.969-0.365-1.944-1.354-2.18C420.026,234.444,419.029,235.036,418.789,236.005z"/>
		<path id="XMLID_28383_" fill="#FFFFFF" d="M382.762,216.752l-4.804,19.272c-0.361,1.453,0.552,2.917,2.036,3.271l9.855,2.347
			l-4.801,19.272c-0.967,3.873,1.464,7.774,5.424,8.718l14.338,3.414c3.96,0.942,7.951-1.429,8.916-5.302l6.682-26.808
			c2.146,0.079,4.128-1.323,4.656-3.438c0.604-2.418-0.915-4.857-3.39-5.447c-2.477-0.589-4.972,0.895-5.574,3.314
			c-0.528,2.117,0.572,4.248,2.514,5.144l-6.461,25.933c-0.845,3.387-4.337,5.463-7.801,4.639l-12.546-2.985
			c-3.468-0.827-5.59-4.239-4.747-7.628l4.584-18.398l9.859,2.352c1.482,0.353,2.981-0.537,3.344-1.99l4.801-19.271l-3.585-0.854
			l0.829-3.33c0.153-0.611-0.265-1.234-0.92-1.326c-0.57-0.077-1.102,0.303-1.237,0.85l-2.089,8.375
			c-0.153,0.613,0.271,1.236,0.922,1.328c0.57,0.08,1.101-0.302,1.235-0.847l0.822-3.299l1.794,0.427l-4.15,16.646
			c-0.241,0.966-1.238,1.56-2.228,1.324l-19.806-4.717c-0.94-0.224-1.518-1.149-1.286-2.068l4.168-16.737l1.704,0.404l-0.83,3.33
			c-0.151,0.613,0.269,1.235,0.924,1.327c0.567,0.076,1.103-0.301,1.236-0.848l2.09-8.378c0.152-0.611-0.27-1.236-0.926-1.33
			c-0.566-0.076-1.099,0.305-1.235,0.852l-0.82,3.296L382.762,216.752z M419.926,239.058c-1.486-0.355-2.396-1.818-2.033-3.27
			c0.362-1.453,1.858-2.34,3.343-1.985c1.485,0.354,2.396,1.815,2.034,3.269C422.907,238.521,421.412,239.409,419.926,239.058z"/>
	</g>
	<path id="XMLID_29521_" fill="#FFFFFF" d="M63.585,337.7c0,0-0.259-9.959-0.584-11.197c0.162,0.031,0.325,0.063,0.486,0.095
		c2.18,0.317,11.093,0.509,11.093,0.509c0.162-0.095,0.324-0.316,0.39-0.604c0.097-0.385,0-0.926-0.618-1.465
		c-0.944-0.828-1.594-2.067-1.529-3.275c0.128-1.783,1.626-3.023,3.936-3.023s3.773,1.24,3.903,3.023
		c0.098,1.208-0.585,2.447-1.528,3.275c-0.619,0.539-0.716,1.08-0.619,1.465c0.065,0.285,0.26,0.509,0.423,0.604
		c0,0,8.262-0.191,10.833-0.477c0.162-0.031,0.357-0.064,0.552-0.126v0.063c0.034,0,0.034,0,0.034,0
		c0.064,0.095,0.064,0.192,0.064,0.318l0.033,0.097c0.293,2.354,0.488,10.721,0.488,10.721c-0.098,0.158-0.325,0.316-0.619,0.414
		c-0.39,0.063-0.943-0.033-1.495-0.638c-0.847-0.891-2.116-1.558-3.353-1.463c-1.854,0.095-3.09,1.56-3.09,3.817
		c0,2.26,1.237,3.689,3.09,3.818c1.237,0.094,2.505-0.574,3.353-1.496c0.551-0.574,1.104-0.699,1.495-0.605
		c0.293,0.066,0.52,0.254,0.619,0.416c0,0-0.228,8.813-0.521,10.88c-0.032,0.127-0.064,0.287-0.098,0.415
		c-0.13,0.03-0.228,0.095-0.357,0.126c-2.246,0.287-11.027,0.479-11.027,0.479c-0.162-0.096-0.357-0.318-0.423-0.604
		c-0.098-0.382,0-0.923,0.619-1.464c0.943-0.828,1.626-2.068,1.528-3.275c-0.13-1.782-1.594-3.026-3.903-3.026
		s-3.807,1.242-3.936,3.026c-0.066,1.207,0.584,2.447,1.529,3.275c0.618,0.541,0.714,1.082,0.618,1.464
		c-0.066,0.286-0.228,0.51-0.39,0.604c-0.033,0-11.125-0.255-11.581-0.604v0.03l-0.033-0.03c0.359-0.416,0.618-11.293,0.618-11.293
		c-0.098-0.16-0.324-0.352-0.618-0.416c-0.391-0.096-0.943,0.029-1.495,0.604c-0.847,0.922-2.116,1.592-3.351,1.496
		c-1.854-0.127-3.124-1.559-3.124-3.818c0-2.258,1.268-3.723,3.124-3.816c1.235-0.095,2.504,0.572,3.351,1.463
		c0.552,0.604,1.106,0.699,1.495,0.639C63.261,338.017,63.488,337.86,63.585,337.7L63.585,337.7z"/>
	<g>
		<path fill="#FFFFFF" d="M146.159,186.41h-5.711C140.515,230.962,146.092,230.962,146.159,186.41z"/>
		<path fill="#FFFFFF" d="M147.11,166.458c0.748-4.984-5.711-12.833-4.421-9.773c1.227,3.062-3.67,7.446-3.67,9.773
			c0,2.13,1.427,3.86,3.401,4.189c-1.087,1.601-1.905,6.185-1.972,13.696h5.711c0-7.713-0.952-12.298-2.04-13.827
			C145.749,170.052,146.836,168.39,147.11,166.458z"/>
		<path fill="#FFFFFF" d="M87.684,161.805c-14.074,10.572-16.251,30.788-4.961,45.154c11.353,14.363,31.888,17.423,45.962,6.85
			c6.526-4.921-10.337-14.1-9.111-21.613c1.427-8.708,20.124-15.825,14.007-23.541C122.292,154.29,101.758,151.229,87.684,161.805z
			 M80.545,184.414c-1.431-1.792-1.088-4.454,0.745-5.854c1.839-1.395,4.557-1.063,5.984,0.801c1.429,1.795,1.088,4.388-0.817,5.786
			C84.625,186.54,81.972,186.211,80.545,184.414z M88.974,202.968c-1.903,1.392-4.553,1.063-5.984-0.734
			c-1.425-1.857-1.084-4.452,0.751-5.849c1.903-1.397,4.555-1.063,5.981,0.73C91.149,198.978,90.81,201.572,88.974,202.968z
			 M94.891,170.916c-1.903,1.395-4.557,1.063-5.982-0.796c-1.429-1.798-1.088-4.393,0.748-5.79c1.905-1.395,4.553-1.064,5.985,0.732
			C97.065,166.924,96.726,169.517,94.891,170.916z M104.41,214.276c-1.903,1.396-4.556,1.063-5.981-0.803
			c-1.429-1.793-1.088-4.388,0.814-5.786c1.837-1.393,4.487-1.063,5.916,0.734C106.586,210.282,106.245,212.877,104.41,214.276z
			 M110.392,168.321c-1.834,1.395-4.554,1.063-5.982-0.798c-1.425-1.796-1.087-4.391,0.814-5.789
			c1.839-1.394,4.487-1.063,5.918,0.734C112.568,164.265,112.229,166.922,110.392,168.321z M125.081,175.04
			c-1.833,1.396-4.487,1.063-5.916-0.733c-1.43-1.798-1.087-4.454,0.748-5.854c1.839-1.394,4.556-1.063,5.985,0.804
			C127.327,171.048,126.983,173.641,125.081,175.04z"/>
	</g>
	<path id="XMLID_29466_" fill="#FFFFFF" d="M20.722,264.876c0.793,1.67,1.203,3.386,1.321,4.899l16.874-7.641l4.249-1.927
		l4.243-1.924l4.247-1.92l5.7,24.315l1.081,4.681l-4.248,1.924l-4.246,1.924l-4.245,1.925l-20.732,9.392
		c-3.09,1.399-7.492-1.385-9.815-6.287c-2.3-4.85-1.651-9.986,1.437-11.385c3.087-1.398,7.457,1.465,9.755,6.314
		c0.792,1.668,1.257,3.354,1.401,4.926l16.873-7.645l-4.62-19.638l-20.735,9.394c-3.088,1.399-7.435-1.409-9.734-6.258
		c-2.324-4.902-1.707-9.961,1.381-11.36C13.997,257.188,18.398,259.974,20.722,264.876L20.722,264.876z M48.861,284.525l4.248-1.926
		l-4.621-19.636l-4.247,1.924L48.861,284.525z"/>
	<path id="XMLID_29566_" fill="#FFFFFF" d="M195.864,23.966l-19.223,2c-0.302-1.259-1.157-2.373-2.441-2.941
		c-2.09-0.925-4.546-0.106-5.606,1.803l-8.131,0.854l-0.193-1.771l-8.402,0.863l0.12,1.178l-1.544,0.182l-0.711-6.581l1.527-0.146
		l0.118,1.178l8.418-0.901l-0.195-1.771l14.554-1.562l-0.24-1.965l20.64-2.194L195.864,23.966z M181.832,7.211l1.102,0.962
		L181.468,8l-0.986,1.077l0.178-1.437l-1.101-0.962l1.466,0.172l0.985-1.076L181.832,7.211z M208.27,15.881l3.693,3.192
		l-4.889-0.608l-3.211,3.596l0.605-4.749l-3.658-3.174l4.854,0.59l3.249-3.574L208.27,15.881z M197.821,2.744l2.089,1.789
		l-2.769-0.319l-1.868,2.028l0.363-2.694l-2.07-1.822l2.751,0.354L198.165,0L197.821,2.744z M170.995,32.241l-8.525,24.716
		l-2.165-0.959l8.488-24.729l-0.734-0.326l-18.318,20.382l-2.273-1.007l18.319-20.381l-0.33-0.146l0.814-1.758l9.281,4.106
		l-0.814,1.756l-0.992-0.438l-0.637,28.204l-2.386-1.056l0.638-28.202L170.995,32.241z M171.393,29.09
		c-1.248-0.553-1.788-1.96-1.24-3.143c0.548-1.186,1.986-1.718,3.234-1.165c1.211,0.536,1.752,1.942,1.204,3.127
		C174.043,29.094,172.604,29.625,171.393,29.09L171.393,29.09z"/>
	<path id="XMLID_29615_" fill="#FFFFFF" d="M399.324,311.542c-0.771,3.681-4.093,6.443-8.074,6.443h-21.145
		c-3.983,0-7.303-2.763-8.078-6.443H399.324z M337.068,266.295h33.037c0.889,0,1.661,0.702,1.661,1.625l0,0
		c0,0.864-0.772,1.567-1.661,1.567h-1.106l-1.548,18.133c-1.771,1.082-3.322,2.381-4.595,3.896
		c-2.379,2.869-3.485,6.227-3.485,9.852v0.596c-1.992,0.488-3.485,2.275-3.485,4.382v1.084c0,2.11,1.493,3.897,3.485,4.385
		l0.057,0.271c0.497,2.326,1.771,4.383,3.542,5.9h-20.646l-4.204-48.496h-1.052c-0.94,0-1.66-0.703-1.66-1.568l0,0
		C335.408,266.997,336.127,266.295,337.068,266.295L337.068,266.295z M362.027,301.366h37.297l0,0
		C399.324,281.989,362.027,281.989,362.027,301.366L362.027,301.366z M360.533,304.399h39.014c1.051,0,1.993,0.866,1.993,1.945
		v1.084c0,1.085-0.942,1.95-1.993,1.95h-39.014c-1.106,0-1.991-0.865-1.991-1.95v-1.084
		C358.541,305.266,359.426,304.399,360.533,304.399L360.533,304.399z"/>
	<path id="XMLID_29508_" fill="#FFFFFF" d="M300.373,389.959c-0.279-0.719-1.188-0.883-1.855-0.637
		c-0.704,0.262-1.268,0.973-0.988,1.692l1.236,3.187c0.279,0.719,1.197,0.914,1.9,0.651c0.668-0.247,1.224-0.991,0.945-1.707
		c-0.242-0.627,0.073-1.315,0.745-1.563c0.638-0.238,1.341,0.07,1.583,0.695c0.779,2-0.438,4.135-2.388,4.855
		c-1.979,0.736-4.341-0.07-5.114-2.07l-1.238-3.186c-0.779-1.998,0.439-4.131,2.42-4.867c1.949-0.725,4.308,0.08,5.084,2.081
		c0.244,0.625-0.072,1.315-0.713,1.552C301.322,390.894,300.617,390.584,300.373,389.959L300.373,389.959z M264.593,407.459
		c-0.024-0.348,0.325-0.764,0.868-0.965c0.512-0.19,1.012-0.125,1.262,0.139c2.354,2.488,4.342,5.252,6.523,7.767
		c0.271,0.328,0.07,0.939-0.429,1.339c-0.515,0.37-1.108,0.445-1.383,0.117l-1.733-1.931l-2.363,0.879l0.009,2.569
		c-0.013,0.435-0.506,0.761-1.144,0.817c-0.646,0.024-1.181-0.313-1.199-0.735C264.898,414.17,264.777,410.752,264.593,407.459
		L264.593,407.459z M267.232,411.054l0.018,1.175l0.736-0.273L267.232,411.054z M274.41,375.613l0.765-0.283l0,0
		c0.159-0.06,0.274-0.138,0.333-0.266l0,0c0.061-0.131,0.048-0.27-0.018-0.426c-0.05-0.126-0.129-0.237-0.261-0.296
		c-0.134-0.058-0.284-0.071-0.444-0.013l-0.766,0.283L274.41,375.613z M275.236,382.923c-0.32,0.116-0.686-0.068-0.806-0.382
		l-0.22-0.563l-0.28-0.72l-1.403-3.627l-0.994-2.558l-0.281-0.72l-0.217-0.563c-0.133-0.342,0.022-0.684,0.346-0.803l0.574-0.215
		l0.543-0.203l1.401-0.519c0.802-0.298,1.624-0.248,2.327,0.063c0.719,0.34,1.307,0.911,1.596,1.66
		c0.17,0.438,0.223,0.848,0.209,1.281c0.161,0.047,0.324,0.093,0.469,0.182l0,0c0.841,0.37,1.537,1.037,1.89,1.944
		c0.362,0.937,0.297,1.894-0.08,2.711c-0.362,0.851-1.049,1.537-2.006,1.892l-1.947,0.722l-0.545,0.202L275.236,382.923z
		 M276.601,377.408l-0.54,0.203l-0.768,0.284l0.814,2.093l1.307-0.481c0.289-0.108,0.526-0.343,0.646-0.601
		c0.121-0.261,0.119-0.545-0.004-0.857c-0.107-0.283-0.301-0.494-0.564-0.609l0,0C277.226,377.318,276.888,377.301,276.601,377.408
		L276.601,377.408z M263.783,377.806l41.559,24.287c0.711-0.052,1.404,0.336,1.676,1.021c0.314,0.811-0.123,1.76-0.95,2.066
		c-0.319,0.12-0.674,0.146-0.973,0.042l-27.437,10.183c-0.183,0.282-0.434,0.482-0.787,0.613c-0.83,0.307-1.768-0.133-2.084-0.943
		c-0.119-0.312-0.133-0.627-0.071-0.938l-13.345-34.361c-0.258-0.191-0.465-0.436-0.584-0.748c-0.328-0.845,0.086-1.75,0.918-2.058
		C262.535,376.662,263.449,377.037,263.783,377.806L263.783,377.806z M267.34,382.918c-0.172,0.211-0.393,0.397-0.581,0.574
		c-0.269,0.244-0.53,0.412-0.829,0.594l9.574,24.646l3.771-1.398l0.513-0.189l0.182,0.471l1.406,3.621l15.299-5.679
		c-0.174-0.83-0.241-1.661-0.169-2.509c0.047-0.912,0.267-1.854,0.631-2.703L267.34,382.918z M265.541,383.089
		c0.183-0.104,0.348-0.238,0.516-0.37c0.136-0.122,0.238-0.234,0.341-0.344l-1.476-0.883L265.541,383.089z M298.076,400.891
		c-0.306,0.723-0.455,1.457-0.521,2.229c-0.06,0.703-0.007,1.399,0.142,2.06l1.053-0.39c-0.104-0.645-0.11-1.317-0.028-1.955
		c0.079-0.459,0.187-0.928,0.342-1.379L298.076,400.891z M300.004,401.998c-0.096,0.319-0.187,0.643-0.209,0.973
		c-0.074,0.454-0.067,0.953-0.022,1.438l2.65-0.984L300.004,401.998z M280.352,411.617l-1.212-3.125l-3.261,1.211l1.215,3.121
		L280.352,411.617z"/>
	<path id="XMLID_16298_" fill="#FFFFFF" d="M351.53,167.479h-38.304v-2.799c0-0.802-0.664-1.45-1.48-1.45h-16.553
		c-0.818,0-1.484,0.65-1.484,1.45v2.799h-3.057c-2.107,0-3.816,1.674-3.816,3.733V201.9c0,1.009,0.408,1.921,1.07,2.593
		c0.694,0.704,1.668,1.141,2.746,1.141h60.878c2.11,0,3.82-1.67,3.82-3.731v-30.688C355.351,169.153,353.641,167.479,351.53,167.479
		z M321.092,200.244c-7.602,0-13.787-6.045-13.787-13.478c0-7.432,6.188-13.479,13.787-13.479c7.603,0,13.788,6.048,13.788,13.479
		C334.88,194.198,328.694,200.244,321.092,200.244z M321.092,175.362c-6.442,0-11.666,5.104-11.666,11.404
		c0,6.298,5.224,11.404,11.666,11.404c6.445,0,11.665-5.105,11.665-11.404C332.757,180.466,327.537,175.362,321.092,175.362z"/>
	<path id="XMLID_16092_" fill="#FFFFFF" d="M45.195,115.292c-1.694-0.261-3.302,0.887-3.585,2.561
		c-0.231,1.379,0.506,2.69,1.722,3.255c0.26,0.12,0.54,0.207,0.837,0.254c1.692,0.261,3.302-0.89,3.584-2.562
		c0.137-0.811-0.054-1.623-0.537-2.283C46.733,115.851,46.015,115.417,45.195,115.292z M46.85,118.66
		c-0.2,1.182-1.334,1.993-2.531,1.809c-1.196-0.184-2.008-1.295-1.808-2.476c0.201-1.184,1.335-1.995,2.532-1.813
		c0.208,0.033,0.409,0.094,0.597,0.182c0.328,0.152,0.614,0.385,0.831,0.686C46.813,117.512,46.948,118.087,46.85,118.66z
		 M51.89,114.22c-0.474-0.071-0.956-0.079-1.432-0.023c0.205-0.428,0.35-0.884,0.428-1.352c0.474-2.802-1.449-5.437-4.285-5.874
		c-2.837-0.437-5.53,1.487-6.002,4.29c-0.079,0.468-0.092,0.942-0.04,1.41c-0.432-0.194-0.893-0.334-1.367-0.404
		c-1.375-0.214-2.755,0.116-3.888,0.929c-1.133,0.809-1.884,2.004-2.114,3.36s0.09,2.717,0.899,3.825
		c0.809,1.109,2.013,1.837,3.386,2.047c0.474,0.073,0.956,0.082,1.431,0.024c-0.204,0.429-0.348,0.885-0.427,1.352
		c-0.23,1.358,0.089,2.718,0.899,3.826c0.518,0.709,1.193,1.262,1.974,1.623c0.442,0.205,0.916,0.351,1.411,0.427
		c2.836,0.438,5.531-1.488,6.003-4.29c0.08-0.469,0.093-0.944,0.039-1.414c0.434,0.198,0.894,0.335,1.368,0.408
		c2.836,0.438,5.529-1.487,6.002-4.29C56.646,117.292,54.725,114.657,51.89,114.22z M55.272,119.956
		c-0.392,2.312-2.612,3.897-4.95,3.539c-0.694-0.106-1.357-0.383-1.912-0.8l-1.193-0.894l0.481,1.401
		c0.225,0.65,0.281,1.358,0.165,2.047c-0.39,2.312-2.612,3.896-4.952,3.536c-1.133-0.173-2.124-0.773-2.792-1.688
		c-0.667-0.915-0.932-2.037-0.74-3.155c0.116-0.687,0.402-1.343,0.829-1.895l0.918-1.184l-1.425,0.486
		c-0.664,0.229-1.383,0.292-2.077,0.187c-1.133-0.175-2.124-0.774-2.792-1.689c-0.668-0.916-0.932-2.036-0.742-3.156
		c0.19-1.118,0.81-2.104,1.744-2.771s2.073-0.939,3.208-0.766c0.694,0.105,1.356,0.382,1.911,0.8l1.192,0.891l-0.48-1.398
		c-0.224-0.653-0.28-1.361-0.165-2.048c0.391-2.311,2.612-3.897,4.953-3.539c2.34,0.359,3.923,2.534,3.533,4.847
		c-0.116,0.687-0.402,1.342-0.829,1.893l-0.918,1.187l1.425-0.487c0.664-0.229,1.383-0.293,2.079-0.186
		C54.078,115.472,55.663,117.643,55.272,119.956z M36.443,114.412c0.282,0.517,0.401,1.122,0.299,1.741
		c-0.195,1.177-1.125,2.062-2.256,2.276c0.051,0.191,0.119,0.379,0.202,0.561c1.333-0.292,2.418-1.348,2.648-2.742
		c0.11-0.671,0.01-1.324-0.254-1.901C36.87,114.386,36.658,114.409,36.443,114.412z M35.059,112.853l0.106,0.063
		c0.104-0.072,0.21-0.144,0.319-0.207c-0.302-0.148-0.633-0.256-0.985-0.312C34.662,112.575,34.85,112.727,35.059,112.853z
		 M33.855,110.681c-0.004,0.106,0.001,0.215,0.012,0.32C33.869,110.891,33.865,110.788,33.855,110.681z M31.775,108.221
		c0.215,0.101,0.448,0.171,0.686,0.208c0.085,0.013,0.171,0.021,0.259,0.025c-0.472-0.412-1.063-0.702-1.73-0.811
		C31.214,107.887,31.479,108.083,31.775,108.221z M32.314,109.312c0.312,0.049,0.629,0.056,0.943,0.021
		c-0.133,0.278-0.226,0.576-0.275,0.881c-0.146,0.886,0.069,1.773,0.606,2.5c0.237,0.321,0.524,0.593,0.848,0.809
		c0.146-0.144,0.298-0.278,0.461-0.407c-0.317-0.189-0.596-0.439-0.821-0.744c-0.441-0.602-0.62-1.333-0.5-2.063
		c0.074-0.447,0.26-0.875,0.54-1.234l0.601-0.771l-0.937,0.315c-0.437,0.146-0.911,0.185-1.369,0.113
		c-0.747-0.118-1.402-0.515-1.845-1.112c-0.443-0.602-0.621-1.332-0.5-2.063c0.119-0.729,0.525-1.372,1.138-1.804
		c0.614-0.435,1.363-0.607,2.11-0.49c0.457,0.072,0.894,0.255,1.264,0.529l0.788,0.584l-0.323-0.915
		c-0.148-0.428-0.188-0.891-0.116-1.338c0.25-1.507,1.707-2.535,3.25-2.293c1.542,0.245,2.593,1.67,2.345,3.178
		c-0.074,0.447-0.261,0.874-0.541,1.231l-0.599,0.771l0.936-0.313c0.439-0.147,0.912-0.188,1.369-0.114
		c1.24,0.195,2.163,1.154,2.348,2.308c0.19-0.063,0.385-0.115,0.583-0.158c-0.25-1.365-1.356-2.496-2.836-2.729
		c-0.312-0.05-0.629-0.055-0.941-0.021c0.132-0.278,0.226-0.575,0.277-0.882c0.301-1.826-0.974-3.554-2.847-3.849
		c-1.868-0.295-3.637,0.951-3.938,2.781c-0.049,0.305-0.059,0.615-0.022,0.922c-0.284-0.13-0.589-0.223-0.9-0.271
		c-0.907-0.143-1.815,0.067-2.56,0.593c-0.745,0.526-1.234,1.304-1.38,2.188c-0.146,0.886,0.069,1.772,0.606,2.502
		C30.615,108.689,31.411,109.169,32.314,109.312z M36.169,108.469c0.169,0.078,0.355,0.137,0.551,0.168
		c1.116,0.177,2.17-0.568,2.35-1.662c0.089-0.528-0.041-1.06-0.36-1.493c-0.321-0.434-0.796-0.721-1.337-0.806
		c-1.115-0.177-2.171,0.567-2.351,1.658C34.875,107.237,35.367,108.097,36.169,108.469z M35.618,106.431
		c0.126-0.771,0.873-1.298,1.661-1.173c0.138,0.023,0.269,0.063,0.393,0.12c0.217,0.1,0.407,0.252,0.551,0.449
		c0.226,0.307,0.316,0.68,0.255,1.055c-0.127,0.771-0.873,1.297-1.661,1.173C36.029,107.931,35.491,107.203,35.618,106.431z
		 M40.633,110.024c-0.402-0.087-0.785-0.258-1.112-0.5l-0.788-0.587l0.321,0.917c0.151,0.428,0.19,0.89,0.116,1.337
		c-0.042,0.262-0.122,0.509-0.231,0.736c0.1,0.009,0.201,0.022,0.301,0.037c0.106,0.017,0.209,0.036,0.313,0.059
		c0.097-0.232,0.169-0.479,0.212-0.736c0.05-0.306,0.057-0.617,0.022-0.922c0.208,0.093,0.426,0.167,0.649,0.22
		C40.492,110.39,40.558,110.205,40.633,110.024z M44.512,108.325c-0.291,0.097-0.569,0.226-0.827,0.385
		c-0.28,0.468-0.692,0.842-1.179,1.081c-0.176,0.243-0.324,0.506-0.444,0.787C43.203,110.298,44.147,109.456,44.512,108.325z
		 M36.125,114.098c0.862,0.062,1.685-0.2,2.337-0.685C37.632,113.394,36.822,113.63,36.125,114.098z M25.021,117.706
		c0.313,0.05,0.63,0.057,0.944,0.021c-0.134,0.279-0.229,0.577-0.276,0.882c-0.148,0.886,0.067,1.773,0.606,2.499
		c0.342,0.468,0.791,0.83,1.306,1.067c0.291,0.136,0.604,0.23,0.931,0.283c1.87,0.295,3.639-0.952,3.939-2.781
		c0.049-0.304,0.056-0.615,0.02-0.922c0.173,0.078,0.352,0.142,0.536,0.19c-0.066-0.221-0.117-0.444-0.156-0.673
		c-0.229-0.09-0.446-0.21-0.645-0.355l-0.787-0.586l0.321,0.916c0.15,0.427,0.189,0.889,0.116,1.337
		c-0.249,1.508-1.706,2.536-3.249,2.293c-0.748-0.119-1.401-0.515-1.846-1.113c-0.443-0.6-0.619-1.332-0.5-2.063
		c0.075-0.449,0.261-0.875,0.541-1.234l0.601-0.771l-0.938,0.313c-0.438,0.146-0.91,0.187-1.368,0.113
		c-0.749-0.116-1.402-0.514-1.848-1.112c-0.44-0.6-0.619-1.333-0.498-2.063c0.12-0.73,0.523-1.371,1.137-1.804
		c0.613-0.435,1.362-0.607,2.11-0.49c0.458,0.07,0.894,0.256,1.263,0.528l0.787,0.586l-0.322-0.919
		c-0.147-0.427-0.188-0.888-0.116-1.337c0.196-1.179,1.129-2.063,2.265-2.278c-0.024-0.032-0.05-0.063-0.075-0.096
		c-0.103-0.138-0.191-0.281-0.273-0.429c-1.268,0.331-2.288,1.362-2.509,2.711c-0.05,0.305-0.059,0.616-0.021,0.922
		c-0.287-0.13-0.59-0.221-0.902-0.271c-0.907-0.143-1.814,0.067-2.56,0.593c-0.745,0.525-1.235,1.303-1.38,2.188
		c-0.147,0.887,0.07,1.773,0.606,2.502C23.318,117.083,24.118,117.562,25.021,117.706z M30.083,113.073
		c-1.116-0.178-2.172,0.568-2.352,1.657c-0.147,0.899,0.344,1.759,1.147,2.134c0.17,0.078,0.355,0.137,0.551,0.168
		c1.115,0.175,2.171-0.568,2.351-1.661c0.088-0.529-0.041-1.06-0.36-1.493C31.099,113.442,30.625,113.157,30.083,113.073z
		 M31.186,115.278c-0.127,0.769-0.873,1.296-1.66,1.172c-0.79-0.125-1.326-0.854-1.2-1.624c0.127-0.771,0.873-1.297,1.662-1.173
		c0.138,0.022,0.269,0.063,0.393,0.119c0.217,0.102,0.406,0.252,0.551,0.449C31.158,114.528,31.248,114.903,31.186,115.278z
		 M32.688,112.633l-0.599,0.771l0.937-0.314c0.125-0.041,0.252-0.073,0.384-0.098c-0.026-0.033-0.051-0.064-0.075-0.098
		c-0.155-0.209-0.284-0.43-0.389-0.659C32.872,112.375,32.786,112.508,32.688,112.633z M33.432,126.667
		c-6.327-3.331-10.739-7.401-10.06-9.236l-0.012-0.006l-9.26,41.126c-0.348,1.55,1.598,2.575,2.73,1.438l30.04-30.186l-0.011-0.007
		C45.663,131.359,39.758,130,33.432,126.667z M31.186,131.292c0.721,0.373,0.937,1.355,0.482,2.198
		c-0.456,0.843-1.408,1.223-2.128,0.851c-0.721-0.373-0.938-1.356-0.482-2.197C29.514,131.299,30.466,130.918,31.186,131.292z
		 M23.665,130.968c0.725-0.854,0.847-1.004,0.918-1.137c0.073-0.132,0.127-0.316,0.443-1.381c0.316-1.065,1.182-1.646,2.417-1.104
		c0.969,0.426,2.21,2.799,2.66,3.708c-0.479,0.147-0.924,0.5-1.199,1.009c-0.274,0.51-0.322,1.065-0.175,1.535
		c-1.023,0.152-3.729,0.486-4.635-0.057C22.94,132.851,22.945,131.824,23.665,130.968z M27.935,135.906
		c-0.906,0.679-2.395,1.635-3.092,1.944c-0.115,0.05-0.251,0.004-0.308-0.106c-0.087-0.168-0.245-0.431-0.494-0.672
		c-0.417-0.408-0.834-0.905-0.941-1.185c-0.057-0.146-0.118-0.369-0.162-0.546c-0.037-0.143,0.069-0.28,0.219-0.285
		c0.151-0.006,0.351-0.021,0.577-0.059c0.437-0.073,1.712-0.332,3.137-1.027c0.742-0.05,1.443-0.142,1.886-0.208l0.034-0.005
		c0.122,0.28,0.318,0.518,0.579,0.679C29.019,134.885,28.5,135.482,27.935,135.906z M32.416,140.234
		c-0.176,0.064-0.399,0.14-0.554,0.178c-0.297,0.067-0.947,0.014-1.529-0.091c-0.345-0.064-0.654-0.046-0.849-0.021
		c-0.124,0.017-0.239-0.065-0.262-0.187c-0.132-0.738-0.164-2.479-0.1-3.595c0.039-0.693,0.25-1.448,0.433-1.985
		c0.284,0.121,0.595,0.146,0.899,0.087l0.013,0.029c0.194,0.396,0.513,1.014,0.89,1.641c0.218,1.542,0.717,2.718,0.901,3.11
		c0.097,0.203,0.196,0.374,0.275,0.497C32.614,140.019,32.557,140.182,32.416,140.234z M37.06,134.661
		c-0.724,0.856-0.846,1.006-0.917,1.138c-0.073,0.134-0.127,0.315-0.445,1.382c-0.315,1.066-1.181,1.646-2.415,1.104
		c-0.969-0.428-2.21-2.797-2.661-3.711c0.479-0.146,0.923-0.497,1.198-1.008c0.275-0.507,0.322-1.064,0.175-1.533
		c1.023-0.152,3.727-0.487,4.635,0.056C37.784,132.78,37.783,133.806,37.06,134.661z"/>
	<path id="XMLID_16384_" fill="#FFFFFF" d="M200.108,37.228l56.257-2.827v-3.557l-56.257,3.557V37.228L200.108,37.228z
		 M200.108,41.774l56.257-2.825v-3.558l-56.257,3.558V41.774L200.108,41.774z M200.108,46.321l56.257-2.829v-3.555l-56.257,3.555
		V46.321L200.108,46.321z M200.108,50.868l56.257-2.828v-3.557l-56.257,3.557V50.868L200.108,50.868z M200.108,55.412l56.257-2.827
		v-3.556l-56.257,3.556V55.412L200.108,55.412z M248.205,27.685c-3.515,0-6.361-2.786-6.361-6.222c0-3.438,2.849-6.219,6.361-6.219
		c0.244,0,0.482,0.013,0.722,0.04l-2.089-4.053l-46.729,22.055l56.257-3.548l-2.654-5.159
		C252.608,26.435,250.557,27.685,248.205,27.685z M256.519,6.263l-6.458,11.775c-0.574-0.296-1.229-0.467-1.921-0.467
		c-2.261,0-4.099,1.792-4.099,4.001c0,2.213,1.838,4.003,4.099,4.003c2.259,0,4.097-1.79,4.097-4.003
		c0-1.248-0.591-2.363-1.508-3.099c1.605-2.92,6.184-11.149,6.926-11.696C258.562,6.114,256.519,6.263,256.519,6.263z"/>
	<g id="XMLID_25290_">
		<path id="XMLID_25291_" fill="#FFFFFF" d="M4.218,233.886c-11.001-6.209,2.406-36.195,7.56-44.923
			c1.957-3.314,6.352-4.5,9.744-2.584l20.762,11.718c5.375,3.031-19.995,45.988-25.371,42.957L4.218,233.886L4.218,233.886z
			 M4.597,187.116c0.603-1.112,2.062-1.529,3.244-0.917l1.761,0.94c-0.139,0.139-0.21,0.259-0.306,0.421
			c-1.311,2.223-3.156,5.815-5.024,10.094l-2.176-1.173c-1.179-0.612-1.607-2.037-0.981-3.192L4.597,187.116L4.597,187.116z
			 M41.714,212.591c0.563-1.135,1.034-2.217,1.462-3.213l13.069,7.374l0.597-1.01c0.74-1.252,1.901-2.105,3.27-2.464
			c1.307-0.343,2.775-0.215,4.055,0.509l8.647,4.881c1.28,0.722,2.129,1.903,2.519,3.201c0.326,1.315,0.198,2.75-0.543,4.001
			l-2.984,5.054c-0.738,1.25-1.945,2.082-3.25,2.421c-1.346,0.316-2.815,0.189-4.094-0.533l-8.647-4.881
			c-1.281-0.723-2.129-1.902-2.48-3.177c-0.392-1.297-0.216-2.708,0.523-3.96l0.598-1.011L41.714,212.591L41.714,212.591z
			 M56.961,222.545c-0.238,0.402-0.288,0.861-0.167,1.303c0.082,0.428,0.398,0.822,0.81,1.058l8.647,4.877
			c0.452,0.256,0.918,0.303,1.378,0.184c0.457-0.114,0.837-0.389,1.075-0.79l0.598-1.013l-11.744-6.628L56.961,222.545z
			 M71.688,224.12c0.263-0.441,0.312-0.898,0.189-1.348c-0.125-0.445-0.402-0.814-0.854-1.07l-8.647-4.878
			c-0.411-0.235-0.918-0.307-1.335-0.164c-0.454,0.119-0.835,0.392-1.097,0.833l-0.597,1.011l11.744,6.628L71.688,224.12z
			 M18.583,213.384c4.033-6.827-7.367-13.478-10.048-6.046c-0.287,0.858-0.576,1.723-0.862,2.58
			c-1.338,4.042-2.602,8.611-2.888,12.924c-0.552,9.709,1.869,7.569,6.002,2.256C13.645,221.375,16.221,217.387,18.583,213.384
			L18.583,213.384z"/>
	</g>
	<g id="XMLID_25249_">
		<path id="XMLID_25250_" fill="#FFFFFF" d="M168.224,408.098c1.538-0.145,3-0.964,3.824-2.38l0,0
			c1.299-2.242,0.489-5.103-1.8-6.376l-22.909-12.696l-4.35,7.498c3.604,0.335,8.662,2.052,13.853,4.927
			C161.983,401.923,166.078,405.248,168.224,408.098L168.224,408.098z M104.657,370.271c-0.934-0.518-1.259-1.665-0.728-2.576
			c0.542-0.877,1.714-1.191,2.638-0.711c0.897,0.525,1.221,1.674,0.728,2.577C106.767,370.476,105.593,370.793,104.657,370.271
			L104.657,370.271z M145.093,385.404l-41.188-22.824l-12.773,18.166c2.396,8.483,34.32,26.836,42.345,24.67L145.093,385.404z"/>
	</g>
	<g id="XMLID_25089_">
		<path id="XMLID_25090_" fill="#FFFFFF" d="M403.803,159.757v29.862h0.558l0,0c1.022,0,2.968-1.354,4.775-3.479
			c1.584-1.804,2.965-4.124,3.493-6.636v-15.912h0.034c0-1.387-0.332-2.319-0.892-2.868c-0.562-0.581-1.45-0.87-2.638-0.967H403.803
			z M379.496,147.064c2.729,0,2.533-1.157,4.873-1.157c3.557,0,5.5,1.19,6.98,1.157c1.581-0.063,2.636-1.385,4.645-1.385
			c3.161,0,0.956,1.354,5.073,1.354c1.153,0,2.076,1,2.076,2.256c0,1.45,2.963,0.418,2.963,3.705c0,1.931-2.997,4.281-4.774,4.281
			c-0.822,0-1.58-0.289-2.176-0.805c-0.657-0.579-2.371-0.097-2.699,0.805c-0.725,1.967-2.502,3.353-4.545,3.353
			c-0.759,0-1.481-0.195-2.108-0.517v12.144c0,1.288-1.084,2.321-2.371,2.321l0,0c-1.283,0-2.371-1.033-2.371-2.321v-12.983
			c-0.229,0.033-0.461,0.065-0.688,0.065c-0.762,0-1.451-0.161-2.11-0.449v23.354c0,1.288-1.055,2.316-2.339,2.316l0,0
			c-1.317,0-2.369-1.028-2.369-2.316v-24.805c-1.649-0.838-2.799-2.737-2.799-4.961C374.754,149.48,376.893,147.064,379.496,147.064
			L379.496,147.064z M403.803,193.677v1.419c1.217,0.159,2.173,1.191,2.173,2.416v0.646c0,1.317-1.12,2.416-2.504,2.416h-22.625
			c-1.385,0-2.503-1.099-2.503-2.416v-0.646c0-1.191,0.89-2.158,2.008-2.385v-8.536c2.272-0.193,4.021-2.062,4.021-4.349v-6.798
			c0.819,0.742,1.875,1.191,3.058,1.191c2.473,0,4.481-1.965,4.481-4.38v-9.567c2.833,0,5.235-1.771,6.357-4.284
			c0.888,0.612,1.945,0.935,3.063,0.935c2.106,0,4.645-1.609,5.962-3.64h1.909h0.198c2.172,0.159,3.984,0.837,5.302,2.157
			c1.354,1.354,2.074,3.189,2.074,5.734l0,0v16.105v0.192l-0.03,0.193c-0.66,3.315-2.438,6.345-4.446,8.665
			c-2.568,2.996-5.796,4.896-7.938,4.928l0,0h-0.56V193.677z"/>
	</g>
	<g>
		<path fill="#FFFFFF" d="M320.701,224.968c3.324-0.978,8.023-1.559,13.213-1.559c5.216,0,9.916,0.581,13.239,1.559
			c3.136-0.899,5.027-2.115,5.027-3.463c0-2.749-8.162-4.997-18.268-4.997c-10.078,0-18.268,2.248-18.268,4.997
			C315.646,222.852,317.564,224.067,320.701,224.968z"/>
		<path fill="#FFFFFF" d="M352.074,224.332c-3.188,2.3-10.105,3.885-18.16,3.885c-8.025,0-14.941-1.583-18.132-3.885
			c1.08,11.575,8.783,20.563,18.132,20.563c3.078,0,5.944-0.979,8.485-2.67c4.703,1.798,15.27-3.332,16.187-9.751
			C359.314,227.37,357.532,224.623,352.074,224.332z M341.183,239.925c-0.595,1.189-1.864,2.063-3.161,1.427
			c-0.622-0.291-1.893-1.638-2.838-2.853c0.487,1.426,0.892,3.226,0.782,3.912c-0.214,1.401-1.673,1.902-3.025,1.688
			c-1.35-0.187-2.595-1.106-2.376-2.509c0.107-0.663,1.027-2.271,1.917-3.518c-1.242,0.897-2.863,1.823-3.565,1.93
			c-1.434,0.238-2.377-0.979-2.597-2.271c-0.215-1.323,0.271-2.749,1.731-2.985c0.673-0.108,2.512,0.237,3.998,0.687
			c-1.27-0.871-2.648-2.115-2.975-2.722c-0.674-1.27,0.219-2.512,1.406-3.119c1.217-0.608,2.783-0.583,3.431,0.688
			c0.323,0.607,0.541,2.404,0.57,3.938c0.485-1.452,1.242-3.117,1.729-3.594c1.027-1.03,2.513-0.607,3.485,0.342
			c0.944,0.926,1.405,2.381,0.38,3.385c-0.486,0.502-2.189,1.27-3.648,1.743c1.541,0,3.403,0.185,4.025,0.501
			C341.777,237.23,341.805,238.737,341.183,239.925z M355.746,232.075c-0.702,5.104-9.023,8.115-10.24,7.506
			c3-3.145,5.218-7.479,6.16-12.446C355.234,227.213,356.289,228.349,355.746,232.075z"/>
	</g>
	<path id="XMLID_914_" fill="#FFFFFF" d="M181.897,90.821l2.222,2.423c0.153,0.164,0.137,0.396-0.031,0.547l0,0
		c-0.157,0.139-0.407,0.133-0.56-0.032l-2.226-2.4c-0.14-0.175-0.133-0.419,0.035-0.568l0,0
		C181.494,90.649,181.755,90.669,181.897,90.821L181.897,90.821z M185.179,77.286c-3.229,0.099-6.003,1.094-7.457,2.476
		c1.545,1.278,4.378,2.088,7.597,1.977c3.216-0.092,5.989-1.084,7.452-2.454c0.019-0.056,0.034-0.086,0.05-0.116
		c-0.002,0.021,0.004,0.056,0.001,0.076c1.309-0.187,2.937-1.199,4.27-2.809c1.329-1.588,2.023-3.352,1.95-4.639
		c-1.309,0.187-2.926,1.212-4.268,2.81c-0.593,0.72-1.074,1.472-1.393,2.198c0.13-1.546-0.086-3.367-0.678-5.221
		c-0.981-2.999-2.694-5.354-4.448-6.351c-0.848,1.8-0.876,4.692,0.082,7.688c0.808,2.529,2.167,4.596,3.621,5.785
		C190.325,77.754,187.877,77.19,185.179,77.286L185.179,77.286z M194.562,103.205c3.115,0.751,6.069,0.542,7.861-0.397
		c-1.131-1.659-3.637-3.183-6.76-3.944c-3.136-0.757-6.068-0.541-7.859,0.396c-0.026,0.041-0.053,0.063-0.082,0.104
		c0.006-0.044,0.009-0.067,0.024-0.101c-1.316-0.15-3.161,0.391-4.891,1.582c-1.728,1.172-2.875,2.678-3.166,3.948
		c1.315,0.151,3.159-0.392,4.877-1.571c0.787-0.526,1.447-1.138,1.958-1.752c-0.554,1.453-0.843,3.26-0.79,5.21
		c0.09,3.145,1.094,5.863,2.494,7.293c1.332-1.508,2.161-4.275,2.069-7.42c-0.082-2.646-0.809-5-1.875-6.526
		C189.731,101.367,191.929,102.564,194.562,103.205L194.562,103.205z M198.092,87.532l1.743,2.77
		c0.12,0.172,0.054,0.423-0.122,0.537l0,0c-0.196,0.113-0.431,0.052-0.558-0.132l-1.733-2.761c-0.114-0.192-0.063-0.434,0.121-0.535
		l0,0C197.729,87.287,197.986,87.349,198.092,87.532L198.092,87.532z M197.074,88.157c0.578,0.919,1.156,1.839,1.735,2.759
		c-2.15,0.773-4.042,1.971-5.751,3.471c-0.578-0.921-1.167-1.853-1.744-2.772C193.406,90.742,195.365,89.653,197.074,88.157
		L197.074,88.157z M190.979,91.81l1.745,2.771c0.127,0.183,0.053,0.421-0.123,0.536l0,0c-0.2,0.111-0.431,0.051-0.559-0.131
		l-1.734-2.762c-0.115-0.192-0.063-0.435,0.122-0.537l0,0C190.627,91.579,190.875,91.629,190.979,91.81L190.979,91.81z
		 M189.263,84.357l2.213,2.41c0.152,0.164,0.146,0.41-0.022,0.561l0,0c-0.165,0.127-0.417,0.12-0.56-0.03l-2.236-2.413
		c-0.139-0.174-0.133-0.42,0.045-0.558l0,0C188.858,84.188,189.11,84.194,189.263,84.357L189.263,84.357z M196.444,78.257
		l2.236,2.412c0.13,0.16,0.123,0.407-0.045,0.558l0,0c-0.154,0.14-0.406,0.134-0.558-0.03l-2.222-2.425
		c-0.143-0.151-0.137-0.396,0.031-0.547l0,0C196.053,78.078,196.301,78.105,196.444,78.257L196.444,78.257z M190.015,92.271
		l1.758,2.763c0.104,0.18,0.054,0.422-0.135,0.546l0,0c-0.185,0.103-0.431,0.053-0.558-0.131l-1.734-2.761
		c-0.115-0.192-0.063-0.435,0.135-0.546l0,0C189.656,92.028,189.912,92.09,190.015,92.271L190.015,92.271z M188.998,92.895
		c0.579,0.919,1.156,1.839,1.734,2.761c-2.151,0.773-4.042,1.971-5.75,3.47c-0.578-0.919-1.155-1.84-1.744-2.771
		C185.33,95.482,187.289,94.393,188.998,92.895L188.998,92.895z M182.913,96.562l1.746,2.75c0.115,0.192,0.053,0.421-0.135,0.547
		l0,0c-0.184,0.103-0.43,0.05-0.559-0.133l-1.733-2.759c-0.113-0.192-0.051-0.422,0.136-0.546l0,0
		C182.553,96.319,182.8,96.37,182.913,96.562L182.913,96.562z M195.542,79.052c0.755,0.805,1.484,1.606,2.235,2.412
		c-1.986,1.13-3.617,2.649-5.025,4.419c-0.74-0.814-1.483-1.608-2.223-2.424C192.425,82.24,194.159,80.824,195.542,79.052
		L195.542,79.052z M190.246,83.719l2.213,2.409c0.153,0.165,0.146,0.41-0.021,0.561l0,0c-0.155,0.14-0.417,0.121-0.56-0.028
		l-2.236-2.415c-0.14-0.173-0.123-0.407,0.045-0.557l0,0C189.842,83.549,190.095,83.556,190.246,83.719L190.246,83.719z
		 M188.362,85.153c0.729,0.803,1.483,1.606,2.211,2.41c-1.975,1.144-3.616,2.648-5.013,4.407c-0.743-0.792-1.484-1.607-2.225-2.399
		C185.242,88.341,186.953,86.923,188.362,85.153L188.362,85.153z M183.055,89.807l2.223,2.423c0.143,0.15,0.123,0.407-0.031,0.55
		l0,0c-0.168,0.146-0.42,0.141-0.572-0.021l-2.223-2.425c-0.142-0.151-0.123-0.406,0.032-0.546l0,0
		C182.649,89.638,182.912,89.658,183.055,89.807L183.055,89.807z M180.998,91.615c0.739,0.813,1.482,1.607,2.222,2.422
		c-1.976,1.145-3.617,2.649-5.013,4.41c-0.753-0.808-1.482-1.609-2.236-2.414C177.877,94.803,179.6,93.395,180.998,91.615
		L180.998,91.615z M175.7,96.283l2.225,2.424c0.141,0.149,0.12,0.406-0.032,0.546l0,0c-0.168,0.148-0.43,0.131-0.573-0.021
		l-2.224-2.423c-0.14-0.15-0.123-0.408,0.032-0.546l0,0C175.294,96.113,175.547,96.119,175.7,96.283L175.7,96.283z"/>
	<g>
		<path fill="#FFFFFF" d="M120.127,263.245c0.7-0.239,1.358-0.686,1.869-1.303c1.128-1.301,1.304-3.096,0.575-4.551
			c-1.575-0.398-3.337,0.08-4.452,1.402c-1.019,1.197-1.275,2.783-0.756,4.145c-2.96-0.158-9.182-0.307-11.656-4.029
			c-1.034-1.554-1.707-3.191-2.145-4.746c0.666,0.422,1.433,0.722,2.245,0.875c0.849,0.156,1.686,0.119,2.463-0.051
			c-2.543-1.238-3.926-3.992-5.106-6.793c0.051-0.152,0.094-0.264,0.115-0.365c1.524-3.7,0.437-9.903-3.117-11.313
			c-3.552-1.409-8.241,2.501-9.765,6.201c-1.36,3.279-1.622,6.732-1.032,9.992c-0.225,2.527-1.371,4.828-3.284,6.332
			c0.809,0.012,1.634-0.137,2.406-0.45c0.877-0.384,1.623-0.913,2.206-1.604c4.046,9.178,15.143,15.045,26.771,7.397
			c-0.132,1.278,0.321,2.587,1.342,3.54c1.293,1.188,3.108,1.457,4.632,0.838c0.529-1.525,0.112-3.27-1.165-4.436
			C121.644,263.739,120.907,263.393,120.127,263.245z M116.69,264.206c-10.958,6.959-26.865-5.393-23.22-19.279
			c-0.783,12.247,13.266,25.107,23.574,19.054C116.94,264.047,116.815,264.126,116.69,264.206z"/>
		<path fill="#FFFFFF" d="M142.408,240.756c-0.809-0.013-1.633,0.135-2.405,0.452c-0.889,0.359-1.624,0.912-2.218,1.58
			c-4.048-9.178-15.143-15.045-26.759-7.377c0.119-1.297-0.336-2.608-1.377-3.549c-1.257-1.178-3.074-1.449-4.61-0.853
			c-0.515,1.549-0.115,3.271,1.178,4.457c0.617,0.571,1.365,0.937,2.147,1.08c-0.703,0.243-1.373,0.67-1.885,1.282
			c-1.114,1.324-1.302,3.097-0.573,4.553c1.587,0.419,3.336-0.08,4.451-1.397c1.016-1.202,1.27-2.786,0.756-4.147
			c2.958,0.158,9.183,0.306,11.669,4.048c1.02,1.535,1.704,3.194,2.108,4.739c-0.643-0.432-1.408-0.733-2.225-0.883
			c-0.848-0.164-1.686-0.123-2.449,0.069c2.543,1.236,3.93,3.991,5.093,6.771c-0.048,0.147-0.077,0.283-0.116,0.363
			c-1.522,3.705-0.434,9.905,3.118,11.312c3.551,1.411,8.24-2.499,9.766-6.199c1.361-3.276,1.624-6.731,1.034-9.99
			C139.333,244.54,140.495,242.26,142.408,240.756z M135.016,254.868c0.785-12.246-13.264-25.108-23.588-19.076
			c0.104-0.067,0.229-0.146,0.355-0.226C122.742,228.605,138.649,240.958,135.016,254.868z"/>
	</g>
	<path id="XMLID_963_" fill="#FFFFFF" d="M248.074,346.914c0.069-1.647-1.056-2.04-1.146-1.948c-0.375,0.391-0.553,0.527-0.539,1.57
		c0,0.319,0.539,1.831,0.516,2.153c0,0.047,0.174,1.646,0.606,2.93c0.132,0.299,0.259,0.586,0.397,0.871
		c0.236,0.48,0.471,0.95,0.738,1.409c0.153,0.253,0.293,0.507,0.434,0.757c0.047,0.078,0.084,0.158,0.131,0.242
		c0.07-0.447,0.117-0.999,0.117-1.248c-0.248-0.736-0.26-1.56-0.037-2.289c0.177-0.645,0.611-1.412,1.36-1.513
		c0.491-0.06,0.972,0.034,1.347,0.364c0.562,0.516,0.619,1.363,0.572,2.061c-0.012,0.311-0.048,0.621-0.093,0.918
		c-0.015,0.124-0.048,0.344-0.037,0.471c0.519,1.98,1.536,5.197,0.634,7.101c-0.188,0.365-0.303,0.878-0.41,1.397
		c2.576,1.211,4.566-1.892,2.893-4.332c-0.479-0.719-0.912-2.084-1.193-3.594c-0.397-2.279-0.445-3.906,0.231-5.086
		c0.762-1.295-0.618-5.532-1.169-5.987c0.938-3.85-2.446-5.213-2.786-2.934c-0.015,0.08,0.831,0.607,0.341,2.107
		c0.141-0.666-0.117-1.547-0.975-1.641c-0.221-0.021-0.725,0.127-0.911,0.652c-0.022,0.08,0.993,0.918,0.854,1.582
		c-0.199-0.984-1.065-1.295-1.136-1.273c-0.526,0.115-0.854,0.746-0.81,1.125c0.022,0.113,1.313,0.273,0.902,1.59
		c-0.014-1.365-1.254-1.201-1.347-1.135c-0.515,0.389-0.354,0.906-0.153,1.354C247.453,344.704,248.623,345.472,248.074,346.914
		L248.074,346.914z M265.647,360.357c-0.196,0.788-0.29,2.943-0.118,3.643c-0.537,0.229-2.643,0.742-3.219,0.768
		c-0.234-1.464-0.408-3.344-0.879-4.316c-0.771-1.639,0.177-4.707,0.691-6.642c0.129-0.524-0.808-3.481,0.984-3.255
		c0.6,0.072,1.182,1.584,0.691,2.955c-0.037,0.127,0.115,2.313,0.408,2.427c0.342,0.129,0.574,0.022,0.738-0.172
		c0.069-0.067,0.736-1.28,0.877-1.511c0.832-1.385,1.732-3.606,1.899-4.246c0.198,0.057,0.924,3.619,0.804,4.076
		c-0.434,1.74-2.013,3.938-2.679,5.842L265.647,360.357z M265.777,346.914c-0.07-1.647,1.055-2.04,1.147-1.948
		c0.36,0.391,0.549,0.527,0.538,1.57c0,0.319-0.551,1.831-0.528,2.153c0,0.047-0.176,1.646-0.608,2.93
		c-0.127,0.299-0.256,0.586-0.396,0.871c-0.225,0.48-0.471,0.95-0.738,1.409c-0.141,0.253-0.281,0.507-0.423,0.757
		c-0.045,0.078-0.093,0.158-0.142,0.242c-0.057-0.447-0.104-0.999-0.104-1.248c0.235-0.736,0.246-1.56,0.034-2.289
		c-0.186-0.645-0.607-1.412-1.355-1.513c-0.492-0.06-0.984,0.034-1.356,0.364c-0.563,0.516-0.61,1.363-0.574,2.061
		c0.022,0.311,0.058,0.621,0.093,0.918c0.012,0.124,0.047,0.344,0.047,0.471c-0.527,1.98-1.535,5.197-0.633,7.101
		c0.176,0.365,0.305,0.878,0.398,1.397c-2.577,1.211-4.568-1.892-2.893-4.332c0.489-0.719,0.926-2.084,1.192-3.594
		c0.411-2.279,0.459-3.906-0.231-5.086c-0.752-1.295,0.621-5.532,1.182-5.987c-0.949-3.85,2.445-5.213,2.775-2.934
		c0.012,0.08-0.834,0.607-0.342,2.107c-0.14-0.666,0.116-1.547,0.983-1.641c0.224-0.021,0.728,0.127,0.899,0.652
		c0.037,0.08-0.992,0.918-0.842,1.582c0.188-0.984,1.066-1.295,1.135-1.273c0.527,0.115,0.846,0.746,0.797,1.125
		c-0.012,0.113-1.311,0.273-0.901,1.59c0.026-1.365,1.267-1.201,1.36-1.135c0.513,0.389,0.35,0.906,0.141,1.354
		C266.387,344.704,265.215,345.472,265.777,346.914L265.777,346.914z M248.201,360.357c0.201,0.788,0.285,2.943,0.119,3.643
		c0.537,0.229,2.646,0.742,3.221,0.768c0.232-1.464,0.408-3.344,0.865-4.316c0.783-1.639-0.177-4.707-0.679-6.642
		c-0.142-0.524,0.808-3.481-0.983-3.255c-0.597,0.072-1.183,1.584-0.703,2.955c0.047,0.127-0.106,2.313-0.409,2.427
		c-0.327,0.129-0.563,0.022-0.738-0.172c-0.06-0.067-0.737-1.28-0.866-1.511c-0.83-1.385-1.732-3.606-1.896-4.246
		c-0.212,0.057-0.927,3.619-0.82,4.076c0.444,1.74,2.024,3.938,2.683,5.842L248.201,360.357z"/>
	<path id="XMLID_1095_" fill="#FFFFFF" d="M135.214,309.474v-5.721c0-5.139,7.909-5.139,7.909,0v4.145c0-5.138,7.91-5.138,7.91,0
		v5.579c0-4.088,6.328-4.088,6.328,0v25.688c0,8.874-1.194,16.552-12.357,16.552c-1.194,0-15.789,0-15.789,0
		c-1.882,0.059-6.806-5.021-8.388-11.095l-4.358-16.815c-1.045-4.086,6.088-7.938,7.819-1.981l1.702,5.75
		c0.418,1.426,0.806,3.032,1.313,4.404c0.984,2.715,2.239,5.053,3.941,6.775c2.058,2.072,4.746,3.299,8.297,3.299
		c0.625,0,1.224-0.029,1.79-0.117c3.284-0.35,5.701-1.752,7.314-3.648c1.612-1.928,2.388-4.323,2.388-6.746
		c0-0.407,0-0.846-0.061-1.283c-0.537-4.378-3.254-7.152-6.478-8.348c-1.401-0.498-2.865-0.73-4.328-0.67
		c-1.462,0.057-2.864,0.379-4.118,0.992c-2.657,1.283-4.598,3.766-4.598,7.385c0,1.865,0.776,3.649,2.181,4.935
		c1.281,1.169,3.044,1.896,5.252,1.896c0.358,0,0.718-0.025,1.076-0.057c1.67-0.264,2.953-1.021,3.789-2.044
		c0.867-1.021,1.284-2.308,1.284-3.476c0-0.264-0.03-0.494-0.061-0.731c-0.268-1.865-1.491-2.917-2.866-3.297
		c-0.507-0.147-1.043-0.177-1.552-0.147c-0.507,0.06-1.013,0.207-1.462,0.44c-1.045,0.583-1.763,1.633-1.582,3.121
		c0.061,0.381,0.417,0.644,0.776,0.585c0.388-0.029,0.686-0.379,0.625-0.758c-0.088-0.818,0.301-1.435,0.867-1.725
		c0.269-0.148,0.598-0.263,0.926-0.291c0.328-0.029,0.686,0,1.013,0.086c0.896,0.233,1.672,0.963,1.854,2.188
		c0.028,0.147,0.056,0.319,0.056,0.524c0,0.877-0.327,1.84-0.952,2.6c-0.657,0.76-1.611,1.373-2.927,1.547
		c-0.268,0.029-0.535,0.061-0.864,0.061c-1.821,0-3.283-0.586-4.298-1.521c-1.104-1.019-1.701-2.451-1.701-3.938
		c0-3.035,1.582-5.08,3.762-6.16c1.104-0.524,2.327-0.815,3.581-0.844c1.255-0.062,2.567,0.145,3.761,0.582
		c2.806,1.051,5.135,3.414,5.582,7.211c0.061,0.379,0.061,0.756,0.061,1.137c0,2.103-0.688,4.205-2.061,5.867
		c-1.402,1.637-3.521,2.834-6.385,3.182c-0.508,0.029-1.077,0.09-1.643,0.09c-3.133,0-5.494-1.08-7.284-2.891
		c-1.552-1.578-2.746-3.621-3.672-6.279c-0.476-1.396-0.565-3.12-0.625-4.582l-0.657-21.456
		C127.153,304.456,135.214,304.251,135.214,309.474L135.214,309.474z"/>
	<path id="XMLID_18972_" fill="#FFFFFF" d="M251.963,87.363c0.476,0.813,1.834,3.793,4.486,3.29
		c3.694-0.701,2.742,7.678,8.369,6.366c0.018-0.024,1.489-1.471,1.812-1.667c2.659-1.495,7.61,3.336,10.999,4.721
		c0.871-0.849,4.212-3.557,5.759-4.288c0.685-0.308-12.743-7.937-14.576-8.647c-6.3-2.415-7.56-0.81-12.433-2.526
		c-1.043-0.355-1.645-2.469-1.967-2.848C251.787,78.645,250.363,84.538,251.963,87.363L251.963,87.363z M249.101,85.349
		c-1.257-6.329-0.729-11.737,1.183-12.101c0.867-0.166,1.894,0.786,2.885,2.491c-0.412-0.385-0.807-0.551-1.178-0.479
		c-1.543,0.293-1.963,4.646-0.955,9.722c1.015,5.098,3.072,8.981,4.615,8.688c0.369-0.07,0.668-0.39,0.909-0.876
		c-0.267,1.944-0.853,3.201-1.721,3.365C252.925,96.522,250.361,91.677,249.101,85.349L249.101,85.349z M243.596,86.462
		c-2.412-12.126-1.566-22.512,1.912-23.172c1.605-0.307,3.486,1.562,5.29,4.834c-0.753-0.718-1.472-1.041-2.144-0.913
		c-2.783,0.527-3.455,8.83-1.521,18.578c1.94,9.746,5.743,17.199,8.526,16.67c0.674-0.128,1.215-0.691,1.639-1.63
		c-0.417,3.689-1.451,6.091-3.061,6.396C250.764,107.887,246.005,98.586,243.596,86.462L243.596,86.462z"/>
	<path id="_x35__101_" fill="#FFFFFF" d="M258.306,276.083l-1.084,1.063c0,0-5.673,5.354-6.256,5.577
		c-0.58-0.224-6.255-5.577-6.255-5.577l-1.084-1.063c-0.918-0.896-1.377-2.076-1.377-3.258c0-1.179,0.459-2.359,1.377-3.256
		c1.83-1.793,4.83-1.793,6.666,0l0.673,0.658l0.676-0.658c1.832-1.793,4.832-1.793,6.664,0c0.917,0.896,1.376,2.077,1.376,3.256
		C259.682,274.007,259.223,275.187,258.306,276.083z"/>
	<path fill="#FFFFFF" d="M130.881,30.436c0.321,0,0.581,0.214,0.581,0.48c0,0.266-0.26,0.48-0.581,0.48
		c-0.32,0-0.581-0.216-0.581-0.48C130.301,30.65,130.562,30.436,130.881,30.436z M127.591,29.315c0,0.267,0.387,0.48,0.864,0.48
		s0.863-0.216,0.863-0.48c0-0.264-0.386-0.479-0.863-0.479S127.591,29.051,127.591,29.315z M46.565,86.401
		c0.746-2.574,2.169-5.02,3.39-7.402c1.466-2.858,2.866-5.896,5.215-8.187c0.974-0.95,2.116-1.727,3.121-2.644
		c0.965-0.875,1.725-1.959,2.767-2.745c1.192-0.903,2.575-1.559,3.929-2.19c1.542-0.721,3.527-1.379,4.703-2.653
		c0.557-0.605,0.853-1.573,1.246-2.296c0.805-1.497,1.697-2.953,2.645-4.37c1.169-1.748,2.415-3.398,3.41-5.249
		c0.508-0.951,1.281-1.728,1.843-2.652c0.675-1.115,1.584-1.984,2.545-2.868c1.399-1.285,2.727-2.636,4.166-3.882
		c2.198-1.905,4.535-3.568,7.025-5.097c1.911-1.173,3.865-2.271,5.842-3.331c1.729-0.926,2.973-2.374,4.669-3.365
		c1.145-0.669,2.319-1.317,3.543-1.837c1.056-0.447,2.161-0.497,3.27-0.77c1.677-0.412,3.517-1.226,4.882-2.272
		c0.458-0.353,0.796-0.929,1.367-1.111c0.557-0.18,0.983,0.078,1.504-0.315c0.524-0.396,0.78-0.794,1.51-0.905
		c0.544-0.082,1.064-0.003,1.618-0.114c0.557-0.111,0.926-0.458,1.42-0.605c0.583-0.176,1.394,0.216,2.028,0.149
		c0.702-0.072,1.171-0.384,1.879-0.326c0.767,0.063,1.533,0.104,2.307,0.132c1.84,0.067,3.518,0.518,5.213,1.202
		c1.636,0.736,3.492,2.395,3.023,4.345c0.365,0.752,0.238,1.497-0.146,2.308c-0.303,0.647-0.924,0.702-1.448,1.104
		c-0.296,0.226-0.744,0.669-0.842,1.039c-0.143,0.543,0.208,1.093-0.012,1.64c-0.342,0.852-1.409,1.191-1.798,2.109
		c-0.151,0.357-0.211,0.669-0.523,0.934c-0.304,0.259-0.705,0.313-0.98,0.604c-0.303,0.317-0.399,0.71-0.716,1.025
		c-0.275,0.271-0.506,0.501-0.729,0.841c-0.656,1.009-1.136,2.138-1.913,3.069c-0.709,0.854-1.651,1.489-2.468,2.236
		c-0.883,0.809-1.652,1.715-2.287,2.724c-0.54,0.86-1.136,1.658-1.767,2.459c-2.029,2.567-4.124,5.086-6.181,7.633
		c-0.867,1.073-1.754,2.14-2.562,3.255c-0.893,1.237-1.293,2.785-1.57,4.264c0.879,1.389,0.917,3.29,0.884,4.85
		c-0.056,2.778-1.135,5.451-1.214,8.221c-0.023,0.85,0.74,1.959,0.356,2.737c-0.202,0.412-0.643,0.436-0.83,0.714
		c-0.271,0.401-0.228,0.805-0.656,1.17c-0.653,0.563-0.979,0.563-0.867,1.479c0.055,0.449,0.156,0.911-0.074,1.326
		c-0.151,0.276-0.426,0.448-0.655,0.663c-0.506,0.474-0.305,0.828-0.18,1.505c0.087,0.469,0.175,0.595-0.12,1.03
		c-0.591,0.865-1.217,0.915-0.62,2.082c0.18,0.348,0.551,0.76,0.51,1.178c-0.106,1.066-2.52,0.52-2.837,1.007
		c0.196,0.244,0.383,0.519,0.348,0.812c-0.098,0.82-1.378,0.772-1.5,1.729c-0.111,0.887,0.459,1.393-0.449,2.021
		c-0.35,0.242-0.806,0.32-0.976,0.754c-0.169,0.434,0.094,0.938,0.013,1.379c-0.06,0.33-0.149,0.495-0.464,0.651
		c-0.279,0.135-0.921-0.031-1.12,0.188c-0.5,0.542,0.577,1.451-0.315,1.844c-0.341,0.15-0.858-0.181-1.162,0.013
		c-0.248,0.156-0.053,0.361-0.196,0.591c-0.218,0.353-0.792,0.444-1.243,0.491c0.016,0.058,0.017,0.111,0,0.16
		c-0.237,0.645-2.123,0.087-2.545-0.177c-1.791-1.114-1.363-3.089-0.787-4.729c0.634-1.797,1.653-3.497,2.089-5.355
		c0.291-1.248,0.271-2.601,0.408-3.873c0.145-1.337,0.312-2.672,0.487-4.005c-1.803,2.229-3.563,4.501-5.411,6.694
		c-0.609,0.727-1.246,1.435-1.915,2.109c-0.352,0.355-0.975,0.746-1.237,1.168c-0.033,0.051-0.059,0.109-0.081,0.173
		c-0.019,0.087-0.039,0.177-0.057,0.266c-0.134,1.024,0.555,2.839,0.909,3.535c1.223,2.428,3.212,5.267,5.939,6.146
		c1.611,0.522,3.274,0.328,4.936,0.306c4.221-0.059,8.781,0.044,12.831,1.286c3.765,1.155,7.168,3.427,9.168,6.803
		c0.032,0.051,0.174,0.417-0.038,0.278c-0.98-0.635-2.14-1.287-3.316-1.438c-1.539-0.193-3.083,0.489-4.521,0.927
		c-1.22,0.368-2.471,0.666-3.735,0.903c-0.006,0.007-0.017,0.01-0.029,0.007c-1.451,0.273-2.918,0.475-4.377,0.613
		c-1.586,0.151-3.202,0.232-4.793,0.079c-0.291-0.027-1.113-0.258-1.297-0.16c-0.112,0.063-0.258,0.403-0.338,0.513
		c-1.83,2.435-4.933,4.033-7.563,5.492c-2.299,1.272-5.563,1.756-6.261,4.699c-0.006,0.037-0.027,0.052-0.065,0.048
		c-1.407,0.014-2.994-0.931-3.413-2.309c-0.251-0.823,0.133-1.721,0.402-2.492c0.505-1.45,1.121-2.851,1.958-4.146
		c1.089-1.688,3.874-3.73,2.59-5.909c-1.142-1.942-3.021-3.604-4.539-5.28c-3.266-3.615-6.62-7.115-10-10.623
		c-3.326-3.448-5.427-7.984-6.063-12.672c-0.508-3.758-0.427-7.683,0.08-11.465c-3.02,1.604-6.004,3.303-8.356,5.791
		c-2.29,2.423-4.081,5.228-5.888,7.998c-0.909,1.395-1.813,2.793-2.715,4.191c-0.54,0.836-1.246,2.485-2.146,2.976
		c-0.514,0.274-0.823,0.037-1.117-0.446C46.093,88.06,46.345,87.168,46.565,86.401z M126.139,30.507
		c1.017-0.087,3.862-0.565,3.434,1.42c-0.263,1.217-1.708,2.109-2.291,3.203c-0.129,0.243-0.179,0.516-0.28,0.76
		c0.042,0,0.087-0.001,0.13-0.006c0.799-0.298,1.539-0.52,2.305-0.938c0.359-0.374,0.585-0.959,1.012-1.27
		c0.195-0.14,0.458-0.178,0.649-0.328c0.41-0.317,0.485-0.779,0.705-1.226c0.286-0.584,0.778-0.857,1.228-1.301
		c0.798-0.786,0.193-1.396,0.505-2.249c0.162-0.443,0.659-0.955,1.057-1.201c0.415-0.256,0.847-0.265,1.132-0.731
		c0.175-0.288,0.157-0.596,0.247-0.896c0.169-0.554,0.162-0.626,0.058-1.132c-0.038-0.182-0.076-0.25-0.09-0.431
		c-0.024-0.346,0.145-0.65,0.011-1.018c-0.309-0.833-1.089-1.269-1.855-1.613c-1.494-0.603-3.017-1.052-4.639-1.136
		c-0.031-0.001-0.062-0.001-0.091-0.003c0.634,0.742,0.955,1.538,0.972,2.374c0.158-0.18,0.39-0.294,0.65-0.294
		c0.478,0,0.862,0.378,0.862,0.845c0,0.465-0.39,1.443-0.862,1.368c-0.571-0.091-0.767-0.388-0.833-0.712
		c-0.113,0.359-0.28,0.728-0.5,1.099c0.168-0.071,0.343-0.09,0.51-0.043c0.533,0.147,0.783,0.898,0.558,1.676
		c-0.226,0.779-0.842,1.289-1.377,1.143c-0.485-0.136-0.734-0.769-0.606-1.467c-0.781,1.044-1.591,2.069-2.28,3.174
		c-0.083,0.135-0.25,0.602-0.403,0.938C126.091,30.509,126.121,30.509,126.139,30.507z M88.813,41.374
		c-0.604-0.113-1.115,0.025-1.115,0.719c0,0.02,0.006,0.038,0.008,0.058c0.042-0.489,0.438-0.594,0.907-0.505
		c0.583,0.109,0.915,0.445,0.915,0.809c0,0.322-0.331,0.417-0.762,0.434c0.015,0,0.031,0.002,0.046,0.002
		c0.615,0,1.113-0.09,1.113-0.531C89.925,41.917,89.519,41.505,88.813,41.374z M99.973,41.843c-1.003,1.486-1.605,3.207-2.611,4.711
		c-1.125,1.68-2.471,3.285-4.138,4.477c-1.907,1.361-4.253,1.985-6.198,3.341c-2.018,1.407-3.713,3.209-4.687,5.442
		c0.182,0.862,0.305,1.75-0.573,2.137c-0.592,0.262-1.241,0.387-1.836,0.651c-0.488,0.22-0.93,0.49-1.334,0.804
		c-0.372,0.501-0.735,1.021-1.087,1.555c2.58-0.849,5.003-2.904,6.749-4.678c1.03-1.05,1.685-2.218,2.532-3.383
		c0.909-1.247,2.182-2.16,3.525-2.92c1.624-0.913,3.398-1.593,4.909-2.693c1.728-1.259,3.146-2.896,4.401-4.6
		c1.939-2.626,3.459-5.383,4.397-8.406C102.453,39.118,101.06,40.228,99.973,41.843z M104.929,37.837
		c-0.583,2.12-1.434,4.135-2.605,6.06c-1.74,2.864-3.806,5.745-6.566,7.759c-2.564,1.87-5.917,2.61-8.004,5.111
		c-0.759,0.91-1.25,1.988-2.029,2.896c-0.812,0.945-1.737,1.808-2.707,2.602c-1.7,1.39-3.731,2.795-5.939,3.356
		c-0.229,0.364-0.453,0.733-0.67,1.108c0.71-0.296,1.423-0.585,2.114-0.881c2.974-1.277,5.352-2.846,7.664-5.104
		c2.105-2.06,3.855-4.433,6.355-6.062c1.77-1.152,3.71-2.14,5.713-2.88c0.048-0.2,0.098-0.398,0.148-0.6
		c0.101-0.405,0.136-0.831,0.388-1.146c0.698-0.865,1.619-1.501,2.259-2.456c0.883-1.321,1.424-2.834,2.311-4.164
		c0.81-1.213,1.761-2.366,2.896-3.308c0.486-1.078,0.937-2.181,1.322-3.297C106.665,37.129,105.777,37.453,104.929,37.837z
		 M97.429,55.136c-1.978,1.462-4.086,2.762-6.136,4.122c-2.097,1.392-3.756,3.099-5.627,4.749c-2.13,1.877-4.601,3.115-6.969,4.652
		c-1.869,1.214-3.499,2.684-4.959,4.318c-0.261,0.972-0.446,1.95-0.54,2.929c1.022-1.199,2.142-2.329,3.242-3.411
		c1.032-1.014,2.099-2,3.232-2.902c1.036-0.824,2.173-1.403,3.31-2.082c3.306-1.974,5.687-4.947,9.009-6.897
		c1.872-1.102,4.199-2.169,5.42-3.977c-0.145-0.192-0.255-0.412-0.23-0.511C97.267,55.796,97.349,55.466,97.429,55.136z
		 M77.781,68.544c2.435-1.647,5.05-2.896,7.276-4.845c1.781-1.563,3.342-3.229,5.324-4.561c2.433-1.637,4.971-3.156,7.286-4.958
		c0.036-0.145,0.071-0.289,0.107-0.434c-1.16,0.624-2.251,1.339-3.401,1.998c-0.938,0.539-2.491,1.463-3.683,1.202
		c-1.654,1.563-3.091,3.392-4.761,4.929c-1.93,1.781-3.956,3.085-6.373,4.14c-1.167,0.51-2.39,0.979-3.586,1.503
		c-0.704,1.3-1.317,2.653-1.794,4.036C75.275,70.449,76.469,69.433,77.781,68.544z M97.959,52.998
		c0.045-0.178,0.088-0.355,0.134-0.533c-1.925,0.754-3.785,1.729-5.461,2.886c-0.503,0.35-0.979,0.73-1.437,1.136
		c0.668-0.018,1.576-0.556,2.078-0.806c0.82-0.411,1.539-0.958,2.323-1.43C96.357,53.792,97.154,53.379,97.959,52.998z
		 M109.056,36.393c-0.205,0.061-0.41,0.118-0.616,0.181c-0.303,0.927-0.656,1.842-1.039,2.747c0.535-0.315,1.1-0.564,1.676-0.779
		c0.348-0.8,0.674-1.606,0.955-2.425C109.706,36.208,109.383,36.301,109.056,36.393z M110.886,35.871
		c-0.255,0.792-0.56,1.57-0.883,2.342c0.446-0.149,0.898-0.295,1.349-0.453c0.106-0.036,0.212-0.075,0.318-0.111
		c0.289-0.734,0.552-1.479,0.799-2.229C111.941,35.567,111.414,35.718,110.886,35.871z M84.518,75.529
		c0.218-0.41,0.448-0.813,0.665-1.201c0.799-1.449,1.667-2.871,2.619-4.229c1.508-2.146,3.405-3.854,5.355-5.608
		c0.586-0.524,1.175-1.045,1.764-1.567c-1.084,0.352-2.322,1.507-3.034,2.058c-1.24,0.961-2.471,1.961-3.558,3.086
		c-2.039,2.11-4.213,4.208-5.984,6.556C83.048,74.967,83.774,75.272,84.518,75.529z M83.126,87.118
		c0.398-0.106,0.793-0.23,1.184-0.367c0.181-0.063,0.364-0.129,0.55-0.198c0.066-0.736,0.178-1.447,0.317-2.156
		c-0.627,0.03-1.249,0.024-1.858-0.02C83.19,85.278,83.144,86.209,83.126,87.118z M89.502,68.964
		c-1.25,1.549-2.313,3.248-3.292,4.97c-0.33,0.581-0.697,1.188-1.018,1.813c0.735,0.224,1.483,0.4,2.236,0.526
		c0.729-1.423,1.545-2.808,2.396-4.166c-0.024-0.067-0.026-0.113,0.007-0.126c0.03-0.011,0.061-0.021,0.091-0.03
		c0.3-0.477,0.602-0.948,0.906-1.418c1.375-2.12,3.087-3.91,4.849-5.729c2.022-2.088,3.978-4.157,6.274-5.965
		c2.385-1.878,4.841-3.471,6.669-5.907c1.065-1.417,2.041-2.908,2.948-4.431c-0.082-0.146-0.138-0.285-0.14-0.363
		c-0.007-0.168-0.011-0.38-0.024-0.609c-0.933,1.347-1.916,2.659-2.957,3.924c-1.763,2.134-3.864,3.86-5.954,5.671
		c-2.507,2.172-5.005,4.351-7.482,6.557C93.131,65.353,91.084,66.999,89.502,68.964z M90.474,72.877
		c-0.051-0.007-0.138-0.078-0.23-0.175c-0.742,1.201-1.439,2.431-2.073,3.678c0.417,0.052,0.837,0.089,1.257,0.107
		c0.581-1.203,1.244-2.371,1.979-3.496C91.096,72.955,90.786,72.915,90.474,72.877z M92.883,70.9
		c0.505-0.658,1.033-1.302,1.583-1.919c1.001-1.128,2.126-2.136,3.073-3.311c0.815-1.012,1.472-2.177,2.398-3.095
		c2.317-2.294,5.213-3.957,7.498-6.309c1.843-1.894,3.415-4.057,4.955-6.188c0.32-0.445,0.638-0.893,0.955-1.34
		c-0.41,0.121-0.826,0.209-1.251,0.251c-0.002,0-0.005,0-0.006,0c-0.579,0.955-1.186,1.896-1.817,2.813
		c-1.526,2.224-3.162,3.883-5.317,5.51c-2.605,1.971-5.002,4.009-7.261,6.349c-1.843,1.909-3.887,3.762-5.409,5.938
		c-0.46,0.659-0.913,1.329-1.354,2.011C91.575,71.392,92.231,71.159,92.883,70.9z M113.324,35.172
		c-0.231,0.722-0.474,1.44-0.741,2.15c0.468-0.169,0.938-0.34,1.406-0.511c0.258-0.67,0.496-1.348,0.705-2.031
		C114.238,34.911,113.78,35.042,113.324,35.172z M122.869,32.426c-0.678,0.195-1.356,0.391-2.033,0.585
		c-0.091,0.477-0.207,0.945-0.345,1.411C121.511,33.937,122.412,33.312,122.869,32.426z M119.593,34.804
		c0.169-0.512,0.316-1.033,0.43-1.56c-0.729,0.21-1.456,0.419-2.182,0.629c-0.176,0.579-0.364,1.154-0.562,1.727
		C117.975,35.364,118.79,35.115,119.593,34.804z M116.991,34.121c-0.484,0.139-0.97,0.277-1.455,0.418
		c-0.189,0.65-0.399,1.299-0.633,1.937c0.493-0.183,0.986-0.366,1.481-0.551C116.599,35.328,116.801,34.724,116.991,34.121z
		 M116.045,47.389c-0.458,0.33-0.943,0.625-1.451,0.869c-0.414,1.139-0.937,2.249-1.467,3.316c-0.269,0.544-0.549,1.079-0.84,1.609
		C113.728,51.374,115.017,49.445,116.045,47.389z M112.515,51.198c0.031-0.063,0.059-0.128,0.092-0.191
		c-1.179,1.61-2.409,3.18-3.724,4.668c-2.046,2.316-4.582,4.11-6.991,6.042c-2.27,1.82-3.703,4.384-5.748,6.441
		c-0.693,0.697-1.356,1.435-1.983,2.199c2.216-1.018,4.246-2.387,5.342-4.468c0.354-0.669,0.656-1.333,1.158-1.911
		c0.932-1.073,2.175-1.861,3.317-2.697c2.031-1.488,3.906-3.197,5.633-5.021C110.682,54.632,111.66,52.948,112.515,51.198z
		 M96.951,90.77c-0.01,0.004-0.021,0.003-0.028,0.004c-0.382,2.292-1.664,4.344-2.379,6.554c-0.195,0.599-0.561,1.49-0.336,2.131
		c0.192,0.546,0.672,0.644,1.225,0.701c0.282,0.028,0.612-0.038,0.884,0.021c0.072-0.016,0.146-0.034,0.219-0.049
		c-0.101-0.159-0.147-0.292-0.046-0.301c0.329-0.032,0.987-0.073,1.23-0.327c0.246-0.257,0.041-0.598,0.365-0.787
		c0.454-0.267,1.167,0.367,1.469-0.263c0.208-0.435-0.371-1.057-0.089-1.461c0.292-0.42,1.089-0.069,1.448-0.413
		c0.483-0.464-0.001-1.275,0.19-1.837c0.163-0.481,0.636-0.562,1.013-0.832c0.718-0.52,0.438-0.926,0.422-1.691
		c-0.01-0.532,0.119-0.836,0.541-1.171c0.251-0.197,0.723-0.292,0.848-0.607c0.139-0.357-0.032-0.184-0.127-0.494
		c-0.063-0.199-0.226-0.318-0.12-0.53c0.151-0.302,0.932-0.299,1.226-0.335c0.356-0.043,1.032,0.025,1.338-0.229
		c0.417-0.35,0.098-0.737-0.12-1.17c-0.187-0.372-0.484-0.727-0.46-1.167c0.021-0.403,0.293-0.654,0.559-0.943
		c0.318-0.349,0.507-0.467,0.526-0.942c0.013-0.405-0.22-0.608-0.278-0.989c-0.099-0.661,0.345-0.887,0.781-1.335
		c0.686-0.706,0.286-1.232,0.333-2.088c0.027-0.53,0.275-0.625,0.697-0.943c0.507-0.384,0.894-0.832,0.918-1.489
		c0.005-0.013,0.013-0.024,0.02-0.038c1.429-0.258,0.525-1.668,0.442-2.604c-0.102-1.161,0.196-2.374,0.404-3.509
		c0.503-2.735,1.208-5.593,0.557-8.374c-0.005-0.024-0.014-0.051-0.021-0.076c-0.32,2.933-1.009,5.873-1.745,8.711
		c-1.268,4.906-2.957,9.983-5.985,14.146C101.37,88.099,99.447,89.941,96.951,90.77z M98.245,73.833
		c-0.601-0.074-1.202-0.149-1.804-0.224c-0.368,0.593-0.692,1.219-0.979,1.858C96.439,75.054,97.375,74.514,98.245,73.833z
		 M94.52,75.821c0.329-0.795,0.711-1.572,1.158-2.306c-0.414-0.051-0.827-0.103-1.24-0.152c-0.786,0.908-1.473,1.908-2.009,2.965
		C93.141,76.217,93.84,76.046,94.52,75.821z M91.577,76.435c0.54-1.13,1.251-2.195,2.072-3.169
		c-0.495-0.062-0.991-0.122-1.485-0.183c-0.72,1.102-1.375,2.247-1.948,3.42C90.673,76.503,91.127,76.477,91.577,76.435z
		 M89.917,83.675c-1.28,0.297-2.625,0.549-3.967,0.667c-0.125,0.628-0.231,1.257-0.303,1.901
		C87.16,85.623,88.74,84.788,89.917,83.675z M81.41,98.911c0.451,0.771,0.967,1.521,1.576,2.184c0.835,0.909,1.71,1.388,2.901,1.594
		c0.515,0.091,1.03,0.153,1.488,0.419c1.124,0.649,2.085,1.861,3.045,2.723c1.083,0.975,2.049,2.167,3.287,2.955
		c1.745,1.11,3.713,1.948,5.643,2.706c3.278,0.645,6.883,0.243,10.24-0.439c-0.658-0.604-2.08-0.951-2.765-1.167
		c-1.186-0.371-2.403-0.647-3.624-0.898c-0.6-0.125-3.642-0.243-3.646-1.354c0-0.431,0.608-0.289,1.015-0.319
		c1.382-0.104,2.765-0.22,4.149-0.319c3.333-0.245,6.986-0.766,10.311-0.255c1.929,0.295,3.836,1.368,4.917,2.998
		c0.434,0.197,0.853,0.431,1.254,0.678c-2.701-3.985-7.979-5.507-12.587-5.999c-2.196-0.234-4.405-0.369-6.615-0.384
		c-0.819-0.007-1.658,0.05-2.497,0.08c-0.003,0.021-0.008,0.042-0.024,0.052c-1.845,1.158-4.211,2.39-6.428,1.478
		c-1.301-0.536-2.273-1.73-3.022-2.854c-1.28-1.91-2.235-4.246-2.556-6.614c-0.713,1.09-1.819,1.834-3.271,2.12
		c-0.712,0.14-1.444,0.177-2.166,0.136c-0.082-0.005-0.727-0.092-0.977-0.161C81.163,98.4,81.313,98.741,81.41,98.911z M82.366,87.3
		c0.017-0.992,0.061-2.014,0.204-3.002c-0.382-0.052-0.757-0.121-1.124-0.214c-0.016-0.003-0.029-0.009-0.045-0.013
		c-0.358,1.12-0.646,2.266-0.824,3.416C81.169,87.494,81.766,87.423,82.366,87.3z M79.826,87.44
		c0.185-1.216,0.492-2.426,0.875-3.605c-0.668-0.285-1.215-0.698-1.644-1.199c-0.58,1.315-0.965,2.721-1.213,4.145
		C78.482,87.142,79.146,87.351,79.826,87.44z M77.168,86.321c0.291-1.506,0.74-2.981,1.411-4.356
		c-0.394-0.672-0.625-1.44-0.709-2.242c-0.988,1.456-1.867,2.987-2.638,4.556C75.773,85.049,76.416,85.743,77.168,86.321z
		 M74.787,83.578c0.889-1.743,1.913-3.437,3.069-5.027c0.139-1.924,1.087-3.842,2.732-4.867c0.036-0.013,0.072-0.007,0.106,0.019
		c0.337,0.211,0.682,0.412,1.033,0.603c0.835-1.105,1.746-2.131,2.764-3.106c1.53-1.474,2.82-3.17,4.418-4.577
		c1.113-0.978,2.273-1.919,3.479-2.781c0.856-0.614,2.048-1.598,3.192-1.538c0.012,0,0.022,0.004,0.034,0.006
		c1.586-1.403,3.179-2.801,4.777-4.191c2.153-1.872,4.497-3.648,6.404-5.767c1.64-1.821,3.123-3.808,4.484-5.848
		c-0.063-0.276-0.155-0.521-0.293-0.686c-1.016-1.201-3.282,2.861-3.653,3.368c-1.65,2.244-3.793,4.622-6.294,6.252
		c-0.015,0.023-0.03,0.048-0.046,0.069c-1.852,2.78-4.188,4.566-6.979,6.41c-1.518,1.002-3.086,1.977-4.438,3.192
		c-1.179,1.063-2.247,2.234-3.464,3.261c-1.272,1.072-2.687,1.923-4.028,2.897c-1.132,0.823-2.126,1.833-3.075,2.849
		c-1.95,2.086-3.818,4.344-5.371,6.752C73.91,81.812,74.292,82.729,74.787,83.578z M73.411,79.928
		c2.582-3.899,5.875-7.465,9.733-10.094c2.785-1.898,4.892-4.496,7.61-6.451c2.875-2.067,6.193-3.7,8.406-6.511
		c0.165-0.207,0.325-0.418,0.487-0.632c-0.527,0.266-1.064,0.497-1.617,0.686c-0.871,1.23-2.209,2.153-3.565,2.942
		c-1.617,0.939-3.302,1.813-4.764,2.98c-1.592,1.27-2.896,2.806-4.576,3.99c-1.292,0.914-2.754,1.561-4.043,2.467
		c-1.217,0.854-2.321,1.859-3.392,2.879c-1.565,1.492-3.195,3.095-4.556,4.846C73.12,77.981,73.209,78.961,73.411,79.928z
		 M48.08,86.957c0.856-1.292,1.685-2.604,2.528-3.903c1.961-3.031,3.854-6.152,6.228-8.898c2.792-3.229,6.363-5.25,10.129-7.237
		c1.975-0.991,3.966-1.959,6.024-2.78c1.708-0.683,3.58-1.058,5.185-1.979c0.115-0.065,0.375,0.188,0.547,0.446
		c0.478-0.289,0.988-0.535,1.542-0.73c0.466-0.165,1.324-0.249,1.449-0.793c0.059-0.257-0.122-0.678-0.17-0.936
		c-0.011-0.065-0.021-0.13-0.032-0.193C80.417,59.221,79,58.897,77.733,59.3c-0.746,0.238-1.398,0.766-2.072,1.15
		c-0.725,0.413-1.464,0.8-2.211,1.172c-2.618,1.304-5.823,3.057-8.836,3.135c-0.048,0-0.1-0.024-0.155-0.067
		c-1.176,0.563-2.305,1.194-3.27,2.079c-0.783,0.719-1.422,1.573-2.209,2.291c-1.103,1.005-2.364,1.843-3.396,2.917
		c-2.141,2.229-3.475,5.046-4.859,7.748c-1.239,2.413-2.68,4.877-3.438,7.488c-0.08,0.278-0.151,0.562-0.2,0.848
		c-0.008,0.053-0.016,0.104-0.023,0.156C47.399,87.798,47.778,87.416,48.08,86.957z"/>
	<path fill="#FFFFFF" d="M294.52,325.38c-10.533,1.945-24.281,0.313-24.303-11.924c0-9.826-11.246-5.715-9.321,3.186
		c3.183,15.205,22.896,17.555,35.851,15.533c21.1-3.254,37.037-22.199,23.843-39.428c-1.331-1.75-1.907-3.028-1.548-5.086
		c1.509-9.133-9.639-21.448-22.061-27.529c-1.669-0.833-2.125-1.532-1.01-3.434c2.164-3.691,4.488-7.264,4.309-11.561
		c-0.158-3.289-2.046-5.867-2.856-8.9c-0.897-3.313-1.195-6.74-1.597-10.154c-0.274-2.021-0.873-2.021-1.82-0.586
		c-1.034,1.521-1.951,3.033-2.982,4.492c-0.973,1.489-1.791,1.803-3.081,1.45c-4.229-1.182-8.923-1.1-13.016,0.271
		c-1.091,0.352-1.509,0.16-2.069-0.713c-1.188-1.847-2.424-3.709-3.652-5.517c-0.951-1.477-1.549-1.418-1.787,0.522
		c-0.518,3.223-1.016,6.406-1.531,9.652c-0.518,3.678-2.482,6.191-2.482,9.965c0,7.767,6.696,11.541,12.479,15.539
		c1.982,1.325,2.484,2.486,1.373,4.916c-7.553,17.198-13.557,42.69,16.591,42.69c7.431,0,14.047-3.244,18.517-8.369
		c1.529-1.825,2.108-1.942,3.3,0.037C323.69,313.688,304.851,323.435,294.52,325.38z M278.464,245.741
		c-1.152,1.086-2.285,2.139-3.417,3.188c-0.28,0.265-0.795,0.265-0.995-0.042c-1.095-1.806-2.704-3.747-4.291-5.438
		c-0.438-0.504-0.399-0.896,0.338-0.75c2.642,0.635,5.383,1.237,8.005,1.859C278.681,244.692,278.857,245.348,278.464,245.741z
		 M293.844,241.934c-1.51,1.688-3.161,3.656-4.253,5.462c-0.236,0.286-0.714,0.286-1.034,0.053c-1.13-1.086-2.261-2.136-3.357-3.223
		c-0.396-0.389-0.219-1.046,0.342-1.16c2.66-0.626,5.324-1.244,8.064-1.867C294.279,241.04,294.361,241.411,293.844,241.934z"/>
	<g id="XMLID_56040_">
		<path id="XMLID_56041_" fill="#FFFFFF" d="M71.27,143.975c0,0.196-0.027,0.39-0.085,0.557l0.256,0.25l-3.323,3.223l-3.466,3.387
			l-3.294,3.251l-0.255-0.249c-0.199,0.055-0.369,0.083-0.567,0.083c-3.55,0-5.822,3.166-5.282,6.527
			c1.362,8.276-1.421,13.69-6.191,18.356c-2.839,2.752-3.692,1.167-1.392-1.109c2.328-2.25,5.822-6.166,3.01-16.385
			c-0.965-4.974,1.875-9.749,6.418-11.359l-0.283-0.307l3.322-3.222l3.436-3.39l3.323-3.251l0.313,0.278
			c1.647-4.444,6.532-7.223,11.615-6.276c10.45,2.751,14.454-0.67,16.753-2.916c2.301-2.277,3.947-1.444,1.137,1.332
			c-4.771,4.666-10.309,7.387-18.799,6.055C74.509,138.282,71.27,140.504,71.27,143.975L71.27,143.975z M88.563,139.199
			c0.257-0.225,0.625-0.225,0.854,0c0.227,0.223,0.227,0.583,0,0.806l-32.941,32.216c-0.227,0.224-0.595,0.224-0.823,0
			c-0.227-0.222-0.227-0.584,0-0.805L88.563,139.199z"/>
	</g>
	<g id="XMLID_55917_">
		<path id="XMLID_55933_" fill="#FFFFFF" d="M318.676,335.446l-14.87,13.163c0.017,0.031,0.039,0.042,0.058,0.073l0.295,0.313
			c3.008-2.677,5.988-5.358,8.99-8.034c1.925-1.715,3.858-3.452,5.806-5.155l0.233-0.188c-0.032-0.063-0.073-0.103-0.136-0.152l0,0
			C318.953,335.353,318.79,335.351,318.676,335.446L318.676,335.446z M322.328,339.415c0.521,0.979,1.187,1.635,1.455,1.486
			c0.305-0.164,0.116-1.08-0.406-2.061l-0.03-0.063c1.15-0.697,2.359-1.406,3.624-2.117c1.808-1.006,7.799,0.619,8.526,0.334
			c2.304-0.942,3.928-4.861,1.021-4.899c-5.667-0.103-7.365-0.231-9.438,0.153c-2.166,0.404-4.609,1.51-6.285,2.986
			c-3.623,3.266-10.205,9.221-16.014,14.453l1.617,1.729C312.008,346.81,316.397,343.167,322.328,339.415L322.328,339.415z
			 M302.226,349.137l-0.843,0.749c-0.313,0.266-0.321,0.741-0.04,1.024l3.067,3.316c0.271,0.307,0.75,0.338,1.063,0.071l0.843-0.751
			c0.313-0.266,0.321-0.743,0.052-1.051l-3.067-3.315C303.027,348.877,302.539,348.869,302.226,349.137L302.226,349.137z
			 M322.806,332.753c-2.404-5.01-3.449-5.366-2.584,1.809C321.165,333.525,321.764,333.225,322.806,332.753L322.806,332.753z
			 M303.225,354.035c-2.2,1.805-4.617,3.748-7.391,5.918c-1.273,0.977-3.051,0.525-1.625-0.717c1.258-1.143,4.08-3.693,7.518-6.807
			L303.225,354.035z M317.439,344.673c0.023,0.008,0.023,0.008,0.05,0.018c1.272,1.395,4.237,0.732,6.81-0.652
			c0.738-0.385,1.453-0.857,2.07-1.369c0.645-0.498,1.19-1.031,1.599-1.559c0.863-1.115,1.076-2.242,0.252-3.137
			c-0.151-0.188-0.317-0.327-0.513-0.471c-0.354,0.224-0.726,0.416-1.084,0.664c0.305,0.133,0.563,0.326,0.763,0.529
			c0.393,0.428,0.197,1.055-0.329,1.754c-0.357,0.465-0.818,0.92-1.389,1.363c-0.577,0.471-1.242,0.879-1.924,1.26
			c-2.136,1.16-4.49,1.793-5.396,0.896C318.043,344.21,317.744,344.433,317.439,344.673L317.439,344.673z M300.719,351.365
			l-10.742,9.486l-2.171,1.95l1.96,2.133l4.079-3.612c-1.134-0.332-1.714-1.387-0.729-2.303c2.438-2.229,5.338-4.915,7.955-7.27
			l-0.32-0.322C300.76,351.404,300.733,351.394,300.719,351.365L300.719,351.365z"/>
		<path id="XMLID_55918_" fill="#FFFFFF" d="M337.991,334.421c-0.391,1.09-1.366,2.21-2.457,2.66
			c-0.271,0.105-1.049-0.008-2.403-0.211c-2.104-0.328-4.98-0.766-6.113-0.131c-1.262,0.705-2.452,1.406-3.555,2.072
			c0.488,0.922,0.761,1.957,0.366,2.17c-0.066,0.031-0.148,0.039-0.241,0.01c-0.352-0.102-0.878-0.689-1.296-1.447
			c-5.711,3.621-9.97,7.123-15.357,11.548l-0.479,0.395c-0.034,0.031-0.09,0.025-0.121-0.006l-1.616-1.729
			c-0.032-0.032-0.034-0.094,0.004-0.123c2.584-2.33,5.319-4.802,7.882-7.118c3.197-2.887,6.119-5.527,8.133-7.336
			c1.626-1.436,4.048-2.59,6.326-3.012c1.712-0.317,3.191-0.287,6.769-0.207c0.785,0.016,1.674,0.039,2.688,0.056
			c0.906,0.012,1.479,0.401,1.617,1.101C338.214,333.509,338.155,333.962,337.991,334.421z M323.26,338.747
			c0.004-0.014,0.021-0.029,0.036-0.043c1.12-0.681,2.346-1.396,3.629-2.117c1.188-0.668,4.104-0.223,6.229,0.105
			c1.115,0.17,2.071,0.315,2.31,0.225c1.455-0.601,2.741-2.527,2.499-3.771c-0.127-0.616-0.625-0.948-1.444-0.961
			c-1.016-0.017-1.905-0.035-2.693-0.055c-3.561-0.076-5.029-0.111-6.727,0.204c-2.248,0.419-4.64,1.556-6.242,2.97
			c-2.011,1.812-4.933,4.45-8.128,7.333c-2.54,2.297-5.256,4.75-7.814,7.062l1.494,1.6l0.412-0.342
			c5.416-4.454,9.691-7.966,15.455-11.612c0.021-0.016,0.05-0.02,0.073-0.016c0.023,0.01,0.043,0.025,0.057,0.045
			c0.452,0.848,0.962,1.369,1.235,1.451c0.043,0.014,0.08,0.014,0.102-0.002c0.219-0.117,0.086-0.938-0.442-1.938l-0.035-0.064
			C323.253,338.798,323.251,338.771,323.26,338.747z M328.673,340.044c-0.128,0.359-0.338,0.738-0.639,1.113
			c-0.406,0.537-0.949,1.066-1.607,1.58c-0.627,0.518-1.353,0.99-2.088,1.375c-2.31,1.246-5.497,2.162-6.903,0.65l-0.026-0.008
			c-0.028-0.012-0.056-0.041-0.06-0.068c0-0.031,0.009-0.061,0.032-0.084c0.155-0.119,0.303-0.238,0.454-0.352
			c0.149-0.115,0.301-0.23,0.453-0.352c0.036-0.027,0.086-0.025,0.117,0.008c0.891,0.877,3.294,0.174,5.291-0.91
			c0.801-0.443,1.407-0.84,1.912-1.254c0.563-0.438,1.026-0.891,1.373-1.344c0.546-0.734,0.661-1.289,0.336-1.643
			c-0.213-0.215-0.469-0.393-0.735-0.508c-0.03-0.012-0.051-0.043-0.055-0.071c0-0.033,0.014-0.065,0.038-0.084
			c0.221-0.149,0.438-0.28,0.655-0.406c0.146-0.086,0.291-0.17,0.433-0.263c0.032-0.018,0.073-0.018,0.105,0.006
			c0.177,0.135,0.366,0.284,0.529,0.484C328.834,338.508,328.961,339.243,328.673,340.044z M317.591,344.665
			c1.346,1.406,4.422,0.5,6.666-0.707c0.724-0.383,1.434-0.852,2.056-1.355c0.641-0.496,1.188-1.031,1.583-1.545
			c0.631-0.822,1.192-2.014,0.256-3.027c-0.129-0.16-0.267-0.277-0.448-0.423c-0.128,0.077-0.255,0.156-0.385,0.231
			c-0.17,0.099-0.346,0.203-0.519,0.314c0.235,0.121,0.455,0.289,0.646,0.482c0.395,0.426,0.291,1.055-0.319,1.861
			c-0.355,0.465-0.827,0.932-1.401,1.379c-0.511,0.418-1.129,0.816-1.94,1.271c-1.868,1.016-4.388,1.855-5.442,0.936
			c-0.134,0.105-0.263,0.205-0.395,0.305C317.829,344.479,317.711,344.571,317.591,344.665z M322.89,332.784L322.89,332.784
			c-0.007,0.021-0.022,0.041-0.045,0.051c-1.037,0.471-1.626,0.766-2.559,1.789c-0.022,0.021-0.062,0.031-0.096,0.023
			c-0.031-0.013-0.058-0.04-0.061-0.074c-0.575-4.756-0.21-5.471,0.152-5.576c0.337-0.092,0.935,0.246,2.604,3.719
			C322.896,332.739,322.898,332.763,322.89,332.784z M320.287,334.36c0.854-0.91,1.437-1.211,2.4-1.65
			c-1.478-3.055-2.096-3.614-2.354-3.545C320.043,329.251,319.798,330.22,320.287,334.36z M319.27,335.646
			c-0.004,0.017-0.016,0.027-0.027,0.038l-0.229,0.189c-1.442,1.262-2.898,2.56-4.302,3.818c-0.502,0.445-1.004,0.891-1.502,1.334
			c-1.543,1.375-3.08,2.75-4.615,4.125c-1.458,1.303-2.916,2.606-4.375,3.909c-0.037,0.034-0.098,0.032-0.128-0.004l-0.296-0.314
			c-0.006-0.012-0.01-0.016-0.012-0.023c-0.027-0.023-0.043-0.039-0.058-0.064c-0.021-0.037-0.011-0.085,0.021-0.107l14.869-13.164
			c0,0,0.002-0.005,0.005-0.007c0.157-0.127,0.376-0.112,0.499,0.033c0.055,0.037,0.105,0.088,0.146,0.172
			C319.278,335.604,319.276,335.626,319.27,335.646z M304.162,348.873c1.439-1.281,2.873-2.563,4.307-3.847
			c1.538-1.377,3.079-2.758,4.619-4.127c0.5-0.445,0.996-0.891,1.498-1.336c1.407-1.257,2.861-2.56,4.306-3.822l0.175-0.141
			c-0.02-0.021-0.041-0.04-0.073-0.064c-0.081-0.096-0.188-0.08-0.26-0.025l-14.806,13.11c0.002,0.002,0.004,0.006,0.008,0.008
			L304.162,348.873z M306.607,353.285c-0.045,0.123-0.123,0.238-0.234,0.332l-0.836,0.746c-0.354,0.299-0.895,0.266-1.196-0.074
			l-3.062-3.314c-0.156-0.156-0.238-0.371-0.229-0.596c0.016-0.215,0.106-0.418,0.274-0.561l0.84-0.746c0,0,0-0.002,0.004-0.002
			c0.176-0.152,0.412-0.228,0.646-0.213c0.218,0.018,0.416,0.114,0.554,0.27l3.065,3.313
			C306.648,352.684,306.703,353.007,306.607,353.285z M301.266,350.203c-0.021,0.063-0.032,0.119-0.035,0.187
			c-0.006,0.172,0.057,0.342,0.178,0.467l3.067,3.313c0.239,0.27,0.665,0.298,0.942,0.063l0.839-0.747
			c0.27-0.234,0.29-0.648,0.04-0.929l-3.063-3.313c-0.11-0.121-0.263-0.199-0.434-0.207c-0.188-0.019-0.375,0.047-0.515,0.168
			l-0.844,0.746C301.363,350.02,301.3,350.105,301.266,350.203z M303.311,354.065c-0.004,0.013-0.016,0.024-0.027,0.035
			c-2.566,2.101-4.912,3.981-7.393,5.921c-0.837,0.641-1.863,0.691-2.189,0.311c-0.115-0.133-0.293-0.515,0.451-1.16
			c0.732-0.668,1.999-1.816,3.609-3.274c1.152-1.04,2.475-2.237,3.904-3.532c0.019-0.019,0.037-0.024,0.063-0.022
			c0.023,0.002,0.047,0.011,0.064,0.026l1.498,1.606c0.018,0.019,0.024,0.042,0.022,0.065
			C303.317,354.049,303.313,354.058,303.311,354.065z M293.801,359.896c-0.046,0.126-0.035,0.238,0.033,0.322
			c0.24,0.28,1.162,0.263,1.945-0.333c2.453-1.92,4.779-3.782,7.315-5.857l-1.376-1.474c-1.402,1.271-2.699,2.448-3.835,3.471
			c-1.61,1.462-2.882,2.61-3.613,3.277C294.022,359.519,293.863,359.725,293.801,359.896z M301.154,351.781
			c-0.005,0.016-0.014,0.025-0.023,0.035c-1.895,1.701-3.896,3.545-5.838,5.328c-0.731,0.671-1.439,1.322-2.116,1.939
			c-0.388,0.355-0.542,0.757-0.444,1.146c0.105,0.446,0.544,0.833,1.139,1.012c0.029,0.01,0.053,0.033,0.063,0.063
			c0.005,0.032-0.004,0.067-0.025,0.084l-4.076,3.614c-0.019,0.015-0.043,0.021-0.064,0.021c-0.025-0.002-0.049-0.015-0.063-0.029
			l-1.965-2.139c-0.033-0.029-0.039-0.088,0.01-0.121l2.171-1.951l10.739-9.484c0.021-0.018,0.051-0.027,0.074-0.021
			c0.029,0.004,0.053,0.021,0.065,0.045c0.005,0.004,0.009,0.006,0.011,0.01c0.01,0.01,0.025,0.029,0.03,0.058l0.295,0.301
			c0.019,0.019,0.028,0.04,0.026,0.063C301.156,351.763,301.156,351.771,301.154,351.781z M292.595,359.619
			c0.082-0.232,0.233-0.455,0.459-0.658c0.676-0.619,1.384-1.274,2.116-1.944c1.914-1.762,3.895-3.584,5.771-5.269l-0.243-0.248
			l-10.662,9.414l-2.104,1.891l1.841,2.006l3.896-3.449c-0.579-0.215-1-0.621-1.114-1.091
			C292.502,360.056,292.517,359.834,292.595,359.619z"/>
	</g>
	<path id="_x31_3_2_" fill="#FFFFFF" d="M286.798,146.734L286.798,146.734c-0.152-0.557-0.738-0.887-1.308-0.737l-4.388,1.148
		l-3.858-2.177l2.323-0.609c0.57-0.147,0.908-0.721,0.757-1.278l0,0c-0.154-0.558-0.742-0.888-1.311-0.739l-4.387,1.151l-5.68-3.206
		l5.68-3.205l4.387,1.147c0.568,0.149,1.156-0.181,1.311-0.737l0,0c0.152-0.559-0.187-1.13-0.757-1.278l-2.323-0.609l3.858-2.177
		l4.388,1.147c0.568,0.149,1.154-0.182,1.308-0.738l0,0c0.153-0.558-0.185-1.129-0.753-1.279l-3.784-0.988l1.014-3.698
		c0.154-0.558-0.188-1.129-0.757-1.278l0,0c-0.57-0.15-1.156,0.18-1.309,0.738l-1.174,4.287l-3.858,2.179l0.622-2.272
		c0.152-0.556-0.188-1.129-0.756-1.276l0,0c-0.569-0.15-1.156,0.181-1.311,0.736l-1.173,4.288l-5.68,3.205v-6.41l3.212-3.139
		c0.416-0.407,0.416-1.069,0-1.478l0,0c-0.417-0.407-1.094-0.407-1.512,0l-1.7,1.664v-4.356l3.212-3.139
		c0.416-0.408,0.416-1.069,0-1.478l0,0c-0.417-0.406-1.094-0.406-1.512,0l-2.77,2.707l-2.77-2.707c-0.416-0.406-1.094-0.406-1.51,0
		l0,0c-0.416,0.407-0.416,1.068,0,1.478l3.211,3.139v4.356l-1.701-1.664c-0.416-0.407-1.094-0.407-1.51,0l0,0
		c-0.416,0.406-0.416,1.067,0,1.478l3.211,3.139v6.41l-5.678-3.205l-1.176-4.288c-0.152-0.557-0.738-0.888-1.311-0.736l0,0
		c-0.57,0.147-0.905,0.722-0.756,1.276l0.625,2.272l-3.858-2.179l-1.177-4.287c-0.154-0.559-0.738-0.89-1.311-0.738l0,0
		c-0.568,0.148-0.906,0.721-0.754,1.278l1.014,3.698l-3.783,0.988c-0.568,0.15-0.906,0.723-0.756,1.279l0,0
		c0.154,0.558,0.737,0.888,1.309,0.738l4.387-1.147l3.86,2.177l-2.322,0.609c-0.571,0.148-0.908,0.721-0.757,1.278l0,0
		c0.154,0.558,0.738,0.888,1.308,0.737l4.388-1.147l5.679,3.205l-5.679,3.206l-4.388-1.151c-0.569-0.147-1.153,0.182-1.308,0.739
		l0,0c-0.153,0.558,0.186,1.131,0.757,1.278l2.322,0.609l-3.86,2.177l-4.387-1.148c-0.57-0.148-1.153,0.182-1.309,0.737l0,0
		c-0.152,0.559,0.188,1.132,0.756,1.279l3.783,0.99l-1.014,3.699c-0.154,0.557,0.186,1.129,0.754,1.278l0,0
		c0.571,0.148,1.155-0.182,1.311-0.737l1.177-4.288l3.858-2.178l-0.625,2.271c-0.15,0.557,0.186,1.13,0.756,1.279l0,0
		c0.572,0.148,1.156-0.182,1.311-0.738l1.176-4.288l5.678-3.206v6.411l-3.211,3.139c-0.416,0.407-0.416,1.068,0,1.479l0,0
		c0.416,0.407,1.094,0.407,1.51,0l1.701-1.663v4.354l-3.211,3.141c-0.416,0.407-0.416,1.068,0,1.477l0,0
		c0.416,0.408,1.094,0.408,1.51,0l2.77-2.707l2.77,2.707c0.418,0.408,1.095,0.408,1.512,0l0,0c0.416-0.406,0.416-1.067,0-1.477
		l-3.212-3.141v-4.354l1.7,1.663c0.418,0.407,1.095,0.407,1.512,0l0,0c0.416-0.408,0.416-1.069,0-1.479l-3.212-3.139v-6.411
		l5.68,3.206l1.173,4.288c0.153,0.557,0.74,0.888,1.311,0.738l0,0c0.568-0.149,0.908-0.723,0.756-1.279l-0.622-2.271l3.858,2.178
		l1.174,4.288c0.152,0.557,0.738,0.887,1.309,0.737c0.569-0.149,0.909-0.723,0.757-1.278l-1.014-3.699l3.784-0.99
		C286.613,147.865,286.951,147.292,286.798,146.734z"/>
	<g id="_x38_5_15_">
		<path id="XMLID_4602_" fill="#FFFFFF" d="M222.432,399.043v13.129c0,1.025-0.852,1.863-1.899,1.863h-32.998
			c-1.049,0-1.903-0.836-1.903-1.863v-52.104c0-1.028,0.853-1.862,1.903-1.862h32.998c1.048,0,1.899,0.834,1.899,1.862v3.183
			c0.693-0.057,1.391-0.088,2.091-0.088c0.575,0,1.15,0.021,1.72,0.06v-10.599c0-1.025-0.851-1.859-1.903-1.859h-40.61
			c-1.052,0-1.905,0.833-1.905,1.859v70.713c0,1.029,0.852,1.861,1.905,1.861h40.61c1.053,0,1.903-0.83,1.903-1.861v-27.278
			L222.432,399.043z M198.955,353.244h10.154c0.701,0,1.268,0.558,1.268,1.242c0,0.687-0.568,1.237-1.268,1.237h-10.154
			c-0.699,0-1.268-0.552-1.268-1.237C197.687,353.802,198.256,353.244,198.955,353.244z M204.034,422.096
			c-1.402,0-2.539-1.111-2.539-2.48s1.136-2.48,2.539-2.48c1.401,0,2.538,1.111,2.538,2.48
			C206.57,420.982,205.434,422.096,204.034,422.096z"/>
		<path id="XMLID_4599_" fill="#FFFFFF" d="M224.522,365.642c-9.708,0-17.578,6.156-17.578,13.751c0,5.943,4.833,10.99,11.586,12.91
			l-0.513,2.844c-0.307,1.689,1.693,2.85,3.063,1.773l4.893-3.836c9.027-0.58,16.128-6.483,16.128-13.691
			C242.104,371.799,234.236,365.642,224.522,365.642z M225.495,386.318c-0.313,0.029-0.564,0.049-1.102,0.049
			c-0.801,0-1.282-0.091-1.814-0.256c-3.27-0.83-5.668-3.578-5.668-6.835c0-1.802,0.683-4.046,1.869-5.524
			c0.238-0.293,0.714-0.098,0.675,0.277c-0.022,0.221-0.033,0.443-0.033,0.668c0,1.939,0.868,3.922,2.268,5.43
			c0.354-3.383,1.228-6.336,2.43-8.454c0.146-0.255,0.516-0.257,0.662,0c1.32,2.329,2.244,5.674,2.521,9.485
			c1.392-1.013,2.254-2.51,2.254-4.461c0-0.257-0.017-0.514-0.045-0.762c-0.043-0.359,0.396-0.572,0.647-0.314
			c1.233,1.258,1.982,2.92,1.982,4.739C232.139,383.938,229.249,385.992,225.495,386.318z"/>
	</g>
	<path id="XMLID_17386_" fill="#FFFFFF" d="M95.681,290.351c0.063,3.461-5.402,8.696-11.252,12.037
		c-5.607,3.188-15.293,5.453-17.354-3.137c-0.627-2.492,0.252-5.245,3.139-7.023c-1.539,1.234-1.952,2.889-1.562,4.38
		c0.332,1.354,0.898,2.298,1.562,2.9c2.563,2.303,6.993,0.255,9.672-2.818c4.335-4.987,8.876-12.707,15.544-7.896
		c4.872-6.584,11.578-0.594,17.306,2.848c3.478,2.127,8.339,2.748,10.055-0.211c0.48-0.775,0.724-1.85,0.613-3.234
		c-0.096-1.537-1.047-2.983-2.898-3.697c3.304,0.826,5.006,3.185,5.228,5.74c0.697,8.797-9.232,9.545-15.571,8.194
		C103.55,297.008,96.703,293.663,95.681,290.351L95.681,290.351z"/>
	<g id="_x36_0_1_">
		<path id="XMLID_661_" fill="#FFFFFF" d="M149.798,65.842l6.891,0.357l0.132-2.448l-8.142-0.422
			c-2.075-0.109-3.848,1.449-3.957,3.479l-0.378,6.986c-2.226-0.539-4.607-0.605-7-0.111c-8.06,1.666-13.351,9.108-12.306,16.959
			l-3.119,0.646l0.52,2.399l36.819-7.612l-0.519-2.399l-3.12,0.646c-1.354-4.479-4.665-7.955-8.81-9.71l0.349-6.446
			C147.235,66.808,148.414,65.769,149.798,65.842z M153.157,84.827l-25.654,5.305c-0.765-6.521,3.659-12.664,10.361-14.05
			C144.566,74.695,151.156,78.559,153.157,84.827z"/>
		<polygon id="XMLID_660_" fill="#FFFFFF" points="145.179,120.954 142.583,108.956 158.847,105.593 156.453,87.915 125.769,94.257 
			139.575,140.287 162.893,135.466 160.498,117.786 		"/>
	</g>
	<path id="_x33_6_61_" fill="#FFFFFF" d="M376.899,336.349c-1.583-2.1-8.221-0.341-11.55-0.208
		c-10.365,0.408-35.517,32.111-43.27,30.953c-3.012-0.453-6.417-1.792-9.977-3.112c-1.471-0.547-3.138-0.002-3.977,1.304l0,0
		c-0.834,1.289-0.637,2.979,0.48,4.043c3.508,3.352,11.21,8.236,15.022,7.873c2.413-0.231,8.201-3.451,17.02-8.666l-3.9,9.193
		c-0.409,0.958,0.722,1.84,1.592,1.241l0,0c3.028-2.079,5.653-4.677,7.751-7.66l7.979-11.354
		C363.343,353.552,380.779,341.515,376.899,336.349z"/>
	<g>
		<path fill="#FFFFFF" d="M309.019,105.498c-4.5-9.284-3.028-9.284-7.528,0c-9.576,4.402-9.576,2.962,0,7.363
			c4.5,9.364,3.028,9.364,7.528,0C318.511,108.459,318.511,109.899,309.019,105.498z"/>
		<path fill="#FFFFFF" d="M324.978,84.529c4.501,9.362,3.025,9.362,7.528,0c9.488-4.402,9.488-2.963,0-7.363
			c-4.503-9.284-3.027-9.284-7.528,0C315.403,81.567,315.403,80.126,324.978,84.529z"/>
		<path fill="#FFFFFF" d="M345.436,65.959c6.384,7.283,10.228,16.728,10.228,27.052c0,5.283-0.981,10.326-2.863,14.888
			c-5.896,3.681-12.767,5.843-20.131,6.241c2.373,3.684,5.399,7.044,8.922,9.767c-1.312,1.118-2.702,2.24-4.175,3.2
			c-0.736-1.041-1.967-1.759-3.354-1.759c-2.131,0-3.93,1.68-3.93,3.841c0,0.641,0.163,1.199,0.407,1.76
			c-5.318,2.322-11.128,3.604-17.35,3.604c-1.966,0-3.927-0.16-5.891-0.401c7.771,8.805,19.312,14.408,32.159,14.408
			c23.402,0,42.392-18.566,42.392-41.459C381.852,86.128,366.056,68.841,345.436,65.959z M336.188,130.069
			c-0.165,0.318-0.325,0.562-0.574,0.721c-0.488,0.479-1.309,0.479-1.8-0.081c-0.327-0.239-0.409-0.561-0.409-0.88
			c-0.326,0-0.653-0.081-0.897-0.4c-0.573-0.479-0.573-1.28-0.084-1.763c0.165-0.238,0.411-0.398,0.738-0.56
			c0.243-0.08,0.57-0.16,0.901-0.16c0.651,0,1.225,0.241,1.633,0.643c0.407,0.401,0.654,0.96,0.654,1.601
			C336.351,129.509,336.271,129.748,336.188,130.069z M369.326,114.061c-0.735,0.961-1.633,1.844-2.695,2.402
			c-1.066,0.559-2.293,0.881-3.521,0.881c-2.047,0-3.928-0.801-5.238-2.162c-1.311-1.278-2.125-3.123-2.125-5.123
			c0-0.719,0.574-1.279,1.31-1.279c0.654,0,1.31,0.562,1.31,1.279c0,1.283,0.492,2.482,1.391,3.361
			c0.819,0.801,2.047,1.361,3.355,1.361c0.82,0,1.64-0.24,2.291-0.562c0.654-0.399,1.313-0.96,1.722-1.601
			c0.407-0.563,1.227-0.722,1.799-0.321C369.492,112.703,369.657,113.502,369.326,114.061z"/>
	</g>
	<path id="XMLID_16899_" fill="#FFFFFF" d="M301.369,47.71c-0.847,4.828-5.025,12.525-6.893,14.831
		c-2.804,3.436-10.542,3.219-17.122,1.826c-6.091-1.262-7.915-9.09-9.603-15.31c-0.137-0.479-2.98-2.046-3.07-2.479
		c-0.311-1.089-0.668-4.567,1.246-5.134c0.842-0.217,18.631-15.396,19.876-15.136c0.399,0.087,6.405,2.783,5.335,9.09
		c-0.043,0.349-4.668-5.263-5.156-4.87c-7.558,6.175-11.563,12.352-10.229,12.09c9.207-1.782,17.654-0.173,26.951-0.173
		c9.293,0,17.743-1.609,26.945,0.173c1.335,0.262-2.667-5.914-10.228-12.09c-0.488-0.393-5.113,5.219-5.159,4.87
		c-1.064-6.307,4.938-9.003,5.338-9.09c1.244-0.262,19.034,14.919,19.833,15.136c1.954,0.564,1.601,4.045,1.289,5.134
		c-0.088,0.433-2.938,1.999-3.068,2.479c-1.688,6.22-3.515,14.047-9.604,15.31c-6.582,1.393-14.364,1.609-17.12-1.826
		c-1.869-2.306-6.048-10.003-6.895-14.831c-0.445-0.088-0.89-0.13-1.332-0.13C302.258,47.581,301.813,47.623,301.369,47.71
		L301.369,47.71z"/>
	<path id="XMLID_16805_" fill="#FFFFFF" d="M161.915,286.817c0-0.625,0.516-1.146,1.172-1.146c0.64,0,1.153,0.521,1.153,1.146
		c0,2.518-1.74,4.1-3.958,4.774c-0.78,0.243-1.65,0.366-2.52,0.366v0.018c-0.852,0-1.704-0.121-2.502-0.382
		c-2.237-0.677-3.958-2.257-3.958-4.774v-8.195c0-2.518,1.722-4.096,3.958-4.772c0.78-0.244,1.65-0.364,2.502-0.364v-0.017
		c0.87,0,1.722,0.137,2.52,0.381c2.219,0.679,3.958,2.256,3.958,4.772c0,0.646-0.513,1.147-1.153,1.147
		c-0.656,0-1.172-0.504-1.172-1.147c0-1.336-1.011-2.203-2.325-2.604c-0.568-0.172-1.19-0.258-1.828-0.258v-0.021
		c-0.621,0-1.241,0.106-1.829,0.278c-1.295,0.399-2.307,1.269-2.307,2.604v8.195c0,1.336,1.011,2.205,2.307,2.604
		c0.587,0.173,1.208,0.259,1.829,0.259v0.018c0.621,0,1.26-0.086,1.828-0.275C160.903,289.023,161.915,288.155,161.915,286.817
		L161.915,286.817z M146.366,281.436c-1.101,0-2.094-0.435-2.804-1.128c-0.728-0.711-1.154-1.665-1.154-2.742
		c0-1.076,0.427-2.031,1.154-2.742c0.71-0.695,1.703-1.129,2.804-1.129c1.083,0,2.077,0.434,2.787,1.129
		c0.729,0.711,1.172,1.666,1.172,2.742c0,1.077-0.443,2.031-1.172,2.742C148.441,281.003,147.449,281.436,146.366,281.436
		L146.366,281.436z M145.211,278.694c0.283,0.279,0.692,0.469,1.153,0.469c0.444,0,0.852-0.188,1.154-0.469
		c0.283-0.296,0.461-0.693,0.461-1.129c0-0.434-0.178-0.832-0.461-1.129c-0.302-0.294-0.711-0.467-1.154-0.467
		c-0.461,0-0.87,0.173-1.153,0.467c-0.302,0.297-0.479,0.695-0.479,1.129C144.732,278.003,144.91,278.398,145.211,278.694
		L145.211,278.694z"/>
</g>
</svg>
